<svg width="95" height="95" viewBox="0 0 95 95" fill="none" xmlns="http://www.w3.org/2000/svg">
<path d="M83.7178 47.2747C83.7176 27.1489 67.4021 10.8342 47.2764 10.8342C27.1507 10.8344 10.8361 27.149 10.8359 47.2747C10.8359 67.4004 27.1506 83.7159 47.2764 83.7161C67.4023 83.7161 83.7178 67.4005 83.7178 47.2747ZM89.627 47.2747C89.627 70.6642 70.6659 89.6252 47.2764 89.6252C23.887 89.6251 4.92578 70.6641 4.92578 47.2747C4.92596 23.8854 23.8871 4.92425 47.2764 4.92407C70.6658 4.92407 89.6268 23.8853 89.627 47.2747Z" fill="white"/>
<path opacity="0.5" d="M44.3203 51.2146V46.2898C44.3204 44.297 45.1933 42.6801 46.1982 41.4958C47.191 40.326 48.429 39.4322 49.5264 38.783C50.8381 38.0069 51.707 36.585 51.707 34.9636C51.707 32.5159 49.7231 30.532 47.2754 30.532C44.9043 30.532 42.9685 32.3936 42.8496 34.7351L42.8398 35.116C42.7606 36.677 41.4694 37.9187 39.8887 37.9187C38.2568 37.9187 36.9336 36.5955 36.9336 34.9636C36.9336 29.2522 41.564 24.6218 47.2754 24.6218C52.9868 24.6218 57.6172 29.2522 57.6172 34.9636C57.6172 38.7587 55.5711 42.0733 52.5361 43.8689C51.7611 44.3275 51.121 44.8279 50.7041 45.3191C50.2995 45.7959 50.2305 46.107 50.2305 46.2898V51.2146C50.2304 52.8463 48.9072 54.1687 47.2754 54.1687C45.6436 54.1687 44.3204 52.8463 44.3203 51.2146Z" fill="white"/>
<path opacity="0.5" d="M51.2151 63.0333C51.2151 65.2091 49.4513 66.9729 47.2755 66.9729C45.0997 66.9729 43.3359 65.2091 43.3359 63.0333C43.3359 60.8576 45.0997 59.0938 47.2755 59.0938C49.4513 59.0938 51.2151 60.8576 51.2151 63.0333Z" fill="white"/>
</svg>
