<svg width="95" height="95" viewBox="0 0 95 95" fill="none" xmlns="http://www.w3.org/2000/svg">
<path d="M83.7139 47.2747C83.7137 27.1489 67.3982 10.8342 47.2725 10.8342C27.1468 10.8344 10.8322 27.149 10.832 47.2747C10.832 67.4004 27.1467 83.7159 47.2725 83.7161C67.3983 83.7161 83.7139 67.4005 83.7139 47.2747ZM89.623 47.2747C89.623 70.6642 70.662 89.6252 47.2725 89.6252C23.8831 89.6251 4.92188 70.6641 4.92188 47.2747C4.92205 23.8854 23.8832 4.92425 47.2725 4.92407C70.6619 4.92407 89.6229 23.8853 89.623 47.2747Z" fill="white"/>
<path opacity="0.5" d="M44.3203 51.2146V27.5769C44.3203 25.9451 45.6436 24.6218 47.2754 24.6218C48.9072 24.6218 50.2305 25.9451 50.2305 27.5769V51.2146C50.2304 52.8463 48.9072 54.1687 47.2754 54.1687C45.6436 54.1687 44.3204 52.8463 44.3203 51.2146Z" fill="white"/>
<path opacity="0.5" d="M51.2151 63.0333C51.2151 65.2091 49.4513 66.9729 47.2755 66.9729C45.0997 66.9729 43.3359 65.2091 43.3359 63.0333C43.3359 60.8576 45.0997 59.0938 47.2755 59.0938C49.4513 59.0938 51.2151 60.8576 51.2151 63.0333Z" fill="white"/>
</svg>
