<svg width="95" height="95" viewBox="0 0 95 95" fill="none" xmlns="http://www.w3.org/2000/svg">
<path d="M83.7139 63.0335C83.7139 57.3785 83.7077 53.434 83.3076 50.4583C82.919 47.5678 82.2084 46.0368 81.1182 44.9465C80.0278 43.8562 78.4962 43.1457 75.6055 42.7571C72.6298 42.357 68.6859 42.3508 63.0313 42.3508H31.5147C25.8597 42.3508 21.9152 42.357 18.9395 42.7571C16.0489 43.1457 14.518 43.8563 13.4277 44.9465C12.3375 46.0368 11.6269 47.5677 11.2383 50.4583C10.8382 53.434 10.832 57.3785 10.832 63.0335C10.832 68.6881 10.8382 72.632 11.2383 75.6077C11.6269 78.4982 12.3376 80.0291 13.4277 81.1194C14.518 82.2097 16.0489 82.9212 18.9395 83.3098C21.9152 83.7099 25.8597 83.7161 31.5147 83.7161H63.0313C68.6859 83.7161 72.6298 83.7099 75.6055 83.3098C78.4962 82.9212 80.0278 82.2097 81.1182 81.1194C82.2082 80.0291 82.919 78.498 83.3076 75.6077C83.7077 72.632 83.7139 68.6881 83.7139 63.0335ZM89.6231 63.0335C89.6231 68.5212 89.6294 72.9347 89.1641 76.3958C88.6873 79.9416 87.6671 82.9269 85.2959 85.2981C82.9247 87.6693 79.9394 88.6895 76.3936 89.1663C72.9325 89.6316 68.5191 89.6252 63.0313 89.6252H31.5147C26.0268 89.6252 21.6134 89.6316 18.1523 89.1663C14.6063 88.6895 11.6203 87.6694 9.24903 85.2981C6.87801 82.9269 5.85762 79.9415 5.38086 76.3958C4.91554 72.9347 4.92188 68.5212 4.92188 63.0335C4.92188 57.5456 4.91554 53.1322 5.38086 49.6711C5.85762 46.1251 6.87773 43.1391 9.24903 40.7678C11.6203 38.3965 14.6063 37.3764 18.1523 36.8997C21.6134 36.4343 26.0268 36.4407 31.5147 36.4407H63.0313C68.5191 36.4407 72.9325 36.4343 76.3936 36.8997C79.9393 37.3764 82.9247 38.3968 85.2959 40.7678C87.6672 43.1391 88.6873 46.1251 89.1641 49.6711C89.6294 53.1322 89.6231 57.5456 89.6231 63.0335Z" fill="white"/>
<path opacity="0.5" d="M67.959 39.3958V31.5168C67.959 20.0941 58.6991 10.8343 47.2764 10.8342C35.8536 10.8342 26.5938 20.094 26.5938 31.5168V39.3958C26.5938 41.0276 25.2705 42.3508 23.6387 42.3508C22.0068 42.3508 20.6836 41.0276 20.6836 39.3958V31.5168C20.6836 16.8304 32.5899 4.92407 47.2764 4.92407C61.9627 4.92418 73.8682 16.8305 73.8682 31.5168V39.3958C73.8682 41.0275 72.5457 42.3506 70.9141 42.3508C69.2822 42.3508 67.959 41.0276 67.959 39.3958Z" fill="white"/>
</svg>
