<svg width="95" height="95" viewBox="0 0 95 95" fill="none" xmlns="http://www.w3.org/2000/svg">
<path d="M8.86329 62.7498V39.1135C8.86329 33.6263 8.85581 29.2133 9.32109 25.7526C9.79783 22.2068 10.8201 19.2217 13.1912 16.8505C15.2591 14.7829 17.7995 13.7366 20.7853 13.1881C23.6869 12.6552 27.239 12.554 31.4994 12.5303L31.5302 18.4394C27.223 18.4634 24.1681 18.5754 21.851 19.001C19.6195 19.4111 18.3279 20.0699 17.3691 21.0284C16.2789 22.1187 15.5688 23.6507 15.1802 26.5413C14.7802 29.5167 14.7724 33.4598 14.7724 39.1135V62.7498C14.7724 68.4045 14.7801 72.3503 15.1802 75.3259C15.5688 78.2153 16.2793 79.7448 17.3691 80.8349C18.4594 81.9252 19.9914 82.6391 22.882 83.0277C25.8574 83.4275 29.8008 83.4317 35.4542 83.4317H59.0906C64.7439 83.4317 68.6874 83.4275 71.6628 83.0277C74.5534 82.6391 76.0853 81.9252 77.1756 80.8349C78.2655 79.7448 78.976 78.2153 79.3646 75.3259C79.7647 72.3503 79.7724 68.4045 79.7724 62.7498V39.1135C79.7724 33.4598 79.7645 29.5167 79.3646 26.5413C78.976 23.6507 78.2659 22.1187 77.1756 21.0284C76.2169 20.0699 74.9252 19.4111 72.6938 19.001C70.3766 18.5754 67.3217 18.4634 63.0146 18.4394L63.0453 12.5303C67.3058 12.554 70.8579 12.6552 73.7594 13.1881C76.7453 13.7366 79.2857 14.7829 81.3535 16.8505C83.7247 19.2217 84.7469 22.2068 85.2237 25.7526C85.689 29.2133 85.6815 33.6263 85.6815 39.1135V62.7498C85.6815 68.2366 85.6888 72.6501 85.2237 76.1107C84.7469 79.6566 83.7247 82.6455 81.3535 85.0167C78.9826 87.3868 75.9966 88.4063 72.4514 88.883C68.9906 89.3482 64.5778 89.3408 59.0906 89.3408H35.4542C29.9669 89.3408 25.5541 89.3482 22.0933 88.883C18.5482 88.4063 15.5622 87.3868 13.1912 85.0167C10.82 82.6455 9.79782 79.6566 9.32109 76.1107C8.856 72.6501 8.86329 68.2366 8.86329 62.7498Z" fill="white"/>
<path opacity="0.5" d="M57.0741 40.9024C58.2667 39.7893 60.1347 39.8527 61.2481 41.0448C62.3613 42.2374 62.2979 44.1054 61.1058 45.2188L44.221 60.9764C43.0859 62.0358 41.3244 62.0359 40.1893 60.9764L33.4377 54.6749C32.2449 53.5615 32.182 51.6937 33.2954 50.5009C34.4086 49.3081 36.2765 49.2416 37.4694 50.3547L42.2052 54.7749L57.0741 40.9024Z" fill="white"/>
<path d="M60.0777 13.515C60.0777 11.8833 58.7549 10.5605 57.1231 10.5605H37.4261C35.7944 10.5605 34.4716 11.8833 34.4716 13.515V17.4544C34.4716 19.0861 35.7944 20.4089 37.4261 20.4089H57.1231C58.7549 20.4089 60.0777 19.0861 60.0777 17.4544V13.515ZM65.9867 17.4544C65.9867 22.3496 62.0184 26.318 57.1231 26.318H37.4261C32.5309 26.318 28.5625 22.3496 28.5625 17.4544V13.515C28.5625 8.61975 32.5309 4.65137 37.4261 4.65137H57.1231C62.0184 4.65137 65.9867 8.61975 65.9867 13.515V17.4544Z" fill="white"/>
</svg>
