<svg width="95" height="95" viewBox="0 0 95 95" fill="none" xmlns="http://www.w3.org/2000/svg">
<path d="M83.7139 47.2747C83.7137 27.1489 67.3982 10.8342 47.2725 10.8342C27.1468 10.8344 10.8322 27.149 10.832 47.2747C10.832 67.4004 27.1467 83.7159 47.2725 83.7161C67.3983 83.7161 83.7139 67.4005 83.7139 47.2747ZM89.623 47.2747C89.623 70.6642 70.662 89.6252 47.2725 89.6252C23.8831 89.6251 4.92188 70.6641 4.92188 47.2747C4.92205 23.8854 23.8832 4.92425 47.2725 4.92407C70.6619 4.92407 89.6229 23.8853 89.623 47.2747Z" fill="white"/>
<path d="M58.9738 35.3371C60.1277 34.1832 61.9977 34.1832 63.1515 35.3371C64.3054 36.4909 64.3054 38.3609 63.1515 39.5148L43.4543 59.213C42.3004 60.3669 40.4294 60.3669 39.2756 59.213L31.3967 51.3341C30.2428 50.1803 30.2428 48.3093 31.3967 47.1554C32.5505 46.0018 34.4206 46.0018 35.5744 47.1554L41.3644 52.9445L58.9738 35.3371Z" fill="white" fill-opacity="0.5"/>
</svg>
