<svg width="95" height="95" viewBox="0 0 95 95" fill="none" xmlns="http://www.w3.org/2000/svg">
<path opacity="0.5" d="M7.87962 44.0454L19.6978 44.0454C21.3295 44.0454 22.6523 45.3682 22.6523 47C22.6523 48.6317 21.3295 49.9545 19.6978 49.9545L7.87962 49.9545C6.24786 49.9545 4.92507 48.6317 4.92507 47C4.92507 45.3682 6.24786 44.0454 7.87962 44.0454Z" fill="white"/>
<path opacity="0.5" d="M74.8484 44.0454L86.6665 44.0454C88.2983 44.0454 89.6211 45.3682 89.6211 47C89.6211 48.6317 88.2983 49.9545 86.6665 49.9545L74.8484 49.9545C73.2166 49.9545 71.8938 48.6317 71.8938 47C71.8938 45.3682 73.2166 44.0454 74.8484 44.0454Z" fill="white"/>
<path opacity="0.5" d="M44.3164 86.3939L44.3164 74.5758C44.3164 72.944 45.6392 71.6212 47.271 71.6212C48.9027 71.6212 50.2255 72.944 50.2255 74.5758L50.2255 86.3939C50.2255 88.0257 48.9027 89.3485 47.271 89.3485C45.6392 89.3485 44.3164 88.0257 44.3164 86.3939Z" fill="white"/>
<path opacity="0.5" d="M44.3164 19.4242L44.3164 7.60603C44.3164 5.97428 45.6392 4.65149 47.271 4.65149C48.9027 4.65149 50.2255 5.97428 50.2255 7.60603L50.2255 19.4242C50.2255 21.056 48.9027 22.3788 47.271 22.3788C45.6392 22.3788 44.3164 21.056 44.3164 19.4242Z" fill="white"/>
<path d="M83.7137 47C83.7137 26.8751 67.3992 10.5606 47.2743 10.5606C27.1493 10.5606 10.8349 26.8751 10.8349 47C10.8349 67.1249 27.1493 83.4394 47.2743 83.4394C67.3992 83.4394 83.7137 67.1249 83.7137 47ZM89.6228 47C89.6228 70.3884 70.6627 89.3485 47.2743 89.3485C23.8858 89.3485 4.92578 70.3884 4.92578 47C4.92578 23.6116 23.8858 4.65149 47.2743 4.65149C70.6627 4.65149 89.6228 23.6116 89.6228 47Z" fill="white"/>
<path d="M44.3163 54.8787V49.9545H39.392C37.7603 49.9545 36.4375 48.6317 36.4375 47C36.4375 45.3682 37.7603 44.0454 39.392 44.0454H44.3163V39.1212C44.3163 37.4894 45.6391 36.1666 47.2708 36.1666C48.9026 36.1666 50.2254 37.4894 50.2254 39.1212V44.0454H55.1496C56.7814 44.0454 58.1042 45.3682 58.1042 47C58.1042 48.6317 56.7814 49.9545 55.1496 49.9545H50.2254V54.8787C50.2254 56.5105 48.9026 57.8333 47.2708 57.8333C45.6391 57.8333 44.3163 56.5105 44.3163 54.8787Z" fill="white"/>
</svg>
