<svg width="95" height="95" viewBox="0 0 95 95" fill="none" xmlns="http://www.w3.org/2000/svg">
<path d="M24.7628 74.8519C15.4381 74.8519 7.87891 67.3817 7.87891 58.1666C7.87891 48.9516 15.4381 41.4813 24.7628 41.4813C25.8821 41.4813 26.976 41.589 28.0344 41.7944M56.6547 31.6237C59.0018 30.8039 61.5275 30.3578 64.1587 30.3578C66.7378 30.3578 69.2156 30.7864 71.5232 31.5755M28.0344 41.7944C27.1319 39.387 26.6388 36.7832 26.6388 34.0657C26.6388 21.779 36.7178 11.8186 49.1507 11.8186C60.7319 11.8186 70.2705 20.4609 71.5232 31.5755M28.0344 41.7944C30.258 42.2258 32.3251 43.0887 34.1428 44.2911M71.5232 31.5755C80.3395 34.5903 86.6706 42.867 86.6706 52.6049C86.6706 63.2693 79.0774 72.1812 68.9424 74.3486" stroke="white" stroke-width="5.90937" stroke-linecap="round"/>
<path opacity="0.5" d="M47.2737 63.0332V86.6707M47.2737 63.0332L55.1529 70.9123M47.2737 63.0332L39.3945 70.9123" stroke="white" stroke-width="5.90937" stroke-linecap="round" stroke-linejoin="round"/>
</svg>
