<svg width="95" height="95" viewBox="0 0 95 95" fill="none" xmlns="http://www.w3.org/2000/svg">
<path d="M4.92579 45.0303V41.0909C4.92579 34.7004 4.9236 29.6985 5.3028 25.7103C5.68621 21.6792 6.48203 18.3794 8.26504 15.4694C10.1328 12.4216 12.6958 9.85849 15.7437 7.99074C18.6537 6.20774 21.9535 5.41191 25.9846 5.0285C29.9728 4.6493 34.9747 4.65149 41.3652 4.65149H53.1834C54.8151 4.65149 56.1379 5.97428 56.1379 7.60604C56.1379 9.23779 54.8151 10.5606 53.1834 10.5606H41.3652C34.8607 10.5606 30.1898 10.5643 26.5463 10.9107C22.9468 11.2529 20.655 11.9077 18.8291 13.0265C16.5763 14.4071 14.6814 16.302 13.3008 18.5548C12.182 20.3807 11.5272 22.6726 11.185 26.272C10.8386 29.9155 10.8349 34.5864 10.8349 41.0909V45.0303C10.8349 49.6592 10.8368 52.983 11.0157 55.6059C11.1928 58.2012 11.533 59.8946 12.1083 61.2841C13.8075 65.3865 17.0696 68.6486 21.1719 70.3478C23.203 71.1886 25.7954 71.5014 30.7396 71.5866C32.3593 71.6145 33.7762 71.6376 34.9483 71.7674C36.1752 71.9033 37.3768 72.1777 38.5299 72.8484C39.6724 73.5132 40.4965 74.4016 41.2151 75.3875C41.8978 76.3242 42.6005 77.5178 43.4003 78.8691L45.5354 82.4776C46.2948 83.7601 48.2537 83.7601 49.0131 82.4776L51.1483 78.8691C51.9481 77.5178 52.6507 76.3242 53.3334 75.3875C54.052 74.4016 54.8761 73.5132 56.0186 72.8484C57.1718 72.1777 58.3733 71.9033 59.6003 71.7674C60.7724 71.6376 62.1892 71.6145 63.8089 71.5866C68.7532 71.5014 71.3456 71.1886 73.3766 70.3478C77.479 68.6486 80.741 65.3865 82.4403 61.2841C83.0155 59.8946 83.3558 58.2012 83.5329 55.6059C83.7118 52.983 83.7137 49.6592 83.7137 45.0303V41.0909C83.7137 39.4591 85.0365 38.1363 86.6682 38.1363C88.3 38.1363 89.6228 39.4591 89.6228 41.0909V45.0303C89.6228 49.5787 89.6263 53.139 89.4304 56.0098C89.2327 58.9062 88.8225 61.3169 87.8993 63.5462C85.6003 69.0965 81.1889 73.5078 75.6387 75.8068C72.4681 77.1198 68.8567 77.4104 63.9128 77.4957C62.183 77.5255 61.0856 77.5494 60.2504 77.6418C59.4715 77.7282 59.1695 77.8544 58.9924 77.9573C58.8057 78.0659 58.5493 78.263 58.1076 78.8691C57.6297 79.5248 57.0901 80.4312 56.2341 81.8775L54.099 85.486C51.0515 90.6345 43.497 90.6345 40.4496 85.486L38.3145 81.8775C37.4584 80.4312 36.9188 79.5248 36.4409 78.8691C35.9992 78.263 35.7429 78.0659 35.5561 77.9573C35.3791 77.8544 35.0771 77.7282 34.2981 77.6418C33.4629 77.5494 32.3655 77.5255 30.6357 77.4957C25.6918 77.4104 22.0805 77.1198 18.9099 75.8068C13.3596 73.5078 8.94826 69.0965 6.64927 63.5462C5.72604 61.3169 5.31581 58.9062 5.11814 56.0098C4.92227 53.139 4.92579 49.5787 4.92579 45.0303Z" fill="white"/>
<path opacity="0.5" d="M83.7106 19.4242C83.7106 14.529 79.7422 10.5606 74.8469 10.5606C69.9517 10.5606 65.9833 14.529 65.9833 19.4242C65.9833 24.3195 69.9517 28.2879 74.8469 28.2879C79.7422 28.2879 83.7106 24.3195 83.7106 19.4242ZM89.6197 19.4242C89.6197 27.583 83.0057 34.1969 74.8469 34.1969C66.6882 34.1969 60.0742 27.583 60.0742 19.4242C60.0742 11.2655 66.6882 4.65149 74.8469 4.65149C83.0057 4.65149 89.6197 11.2655 89.6197 19.4242Z" fill="white"/>
</svg>
