<svg width="95" height="95" viewBox="0 0 95 95" fill="none" xmlns="http://www.w3.org/2000/svg">
<path opacity="0.5" d="M47.2731 55.8635C57.302 55.8635 64.009 57.9983 68.2012 62.3458C72.3562 66.6562 73.4201 72.5239 73.7409 78.3535C73.8301 79.9824 72.5808 81.3761 70.9518 81.4657C69.3227 81.5552 67.9292 80.3058 67.8396 78.6766C67.5335 73.1173 66.5398 69.137 63.9463 66.4468C61.3878 63.7935 56.6448 61.7726 47.2731 61.7726C37.9026 61.7729 33.1622 63.7936 30.6038 66.4468C28.0102 69.137 27.0166 73.1171 26.7106 78.6766C26.6209 80.3056 25.2272 81.5549 23.5983 81.4657C21.9693 81.3761 20.72 79.9824 20.8092 78.3535C21.13 72.5238 22.1938 66.6562 26.349 62.3458C30.5408 57.9986 37.2452 55.8638 47.2731 55.8635Z" fill="white"/>
<path opacity="0.5" d="M56.1364 35.1819C56.1364 30.2867 52.168 26.3183 47.2727 26.3183C42.3775 26.3183 38.4091 30.2867 38.4091 35.1819C38.4091 40.0772 42.3775 44.0455 47.2727 44.0455C52.168 44.0455 56.1364 40.0772 56.1364 35.1819ZM62.0455 35.1819C62.0455 43.3407 55.4315 49.9546 47.2727 49.9546C39.114 49.9546 32.5 43.3407 32.5 35.1819C32.5 27.0232 39.114 20.4092 47.2727 20.4092C55.4315 20.4092 62.0455 27.0232 62.0455 35.1819Z" fill="white"/>
<path d="M83.7137 46.9999C83.7137 26.8749 67.3992 10.5605 47.2743 10.5605C27.1493 10.5605 10.8349 26.8749 10.8349 46.9999C10.8349 67.1248 27.1493 83.4393 47.2743 83.4393C67.3992 83.4393 83.7137 67.1248 83.7137 46.9999ZM89.6228 46.9999C89.6228 70.3883 70.6627 89.3483 47.2743 89.3483C23.8858 89.3483 4.92578 70.3883 4.92578 46.9999C4.92578 23.6114 23.8858 4.65137 47.2743 4.65137C70.6627 4.65137 89.6228 23.6114 89.6228 46.9999Z" fill="white"/>
</svg>
