<svg width="95" height="95" viewBox="0 0 95 95" fill="none" xmlns="http://www.w3.org/2000/svg">
<path opacity="0.5" d="M47.2747 86.6708C69.0325 86.6708 86.6706 69.0327 86.6706 47.275C86.6706 25.5173 69.0325 7.87915 47.2747 7.87915C25.517 7.87915 7.87891 25.5173 7.87891 47.275C7.87891 69.0327 25.517 86.6708 47.2747 86.6708Z" stroke="white" stroke-width="5.90938"/>
<path d="M35.457 63.0332C38.8072 65.5163 42.8816 66.9728 47.2758 66.9728C51.67 66.9728 55.7443 65.5163 59.0945 63.0332" stroke="white" stroke-width="5.90938" stroke-linecap="round"/>
<path d="M63.0354 41.3654C63.0354 44.629 61.2717 47.2748 59.0958 47.2748C56.92 47.2748 55.1562 44.629 55.1562 41.3654C55.1562 38.1018 56.92 35.4561 59.0958 35.4561C61.2717 35.4561 63.0354 38.1018 63.0354 41.3654Z" fill="white"/>
<path d="M35.4591 47.2748C37.6349 47.2748 39.3987 44.6291 39.3987 41.3654C39.3987 38.1018 37.6349 35.4561 35.4591 35.4561C33.2833 35.4561 31.5195 38.1018 31.5195 41.3654C31.5195 44.6291 33.2833 47.2748 35.4591 47.2748Z" fill="white"/>
</svg>
