<svg width="95" height="95" viewBox="0 0 95 95" fill="none" xmlns="http://www.w3.org/2000/svg">
<path d="M4.92578 47.2728C4.92578 38.0719 4.91856 30.8738 5.67211 25.2676C6.4373 19.5762 8.03696 15.0855 11.562 11.5605C15.087 8.0355 19.5777 6.43584 25.2691 5.67065C30.8752 4.9171 38.0734 4.92432 47.2743 4.92432H53.1834C54.8151 4.92432 56.1379 6.24711 56.1379 7.87886C56.1379 9.51061 54.8151 10.8334 53.1834 10.8334H47.2743C37.9055 10.8334 31.175 10.8412 26.0539 11.5297C21.0185 12.2069 17.9838 13.4945 15.7399 15.7384C13.496 17.9823 12.2083 21.0171 11.5312 26.0524C10.8427 31.1735 10.8349 37.904 10.8349 47.2728C10.8349 56.6416 10.8427 63.3721 11.5312 68.4932C12.2083 73.5285 13.496 76.5633 15.7399 78.8072C17.9838 81.0511 21.0185 82.3387 26.0539 83.0159C31.175 83.7044 37.9055 83.7122 47.2743 83.7122C56.643 83.7122 63.3735 83.7044 68.4947 83.0159C73.53 82.3387 76.5647 81.0511 78.8086 78.8072C81.0526 76.5633 82.3402 73.5285 83.0173 68.4932C83.7059 63.3721 83.7137 56.6416 83.7137 47.2728V41.3637C83.7137 39.732 85.0365 38.4092 86.6682 38.4092C88.3 38.4092 89.6227 39.732 89.6227 41.3637V47.2728C89.6227 56.4737 89.63 63.6718 88.8764 69.278C88.1112 74.9694 86.5116 79.4601 82.9866 82.9851C79.4616 86.5101 74.9709 88.1098 69.2795 88.875C63.6733 89.6285 56.4751 89.6213 47.2743 89.6213C38.0734 89.6213 30.8752 89.6285 25.2691 88.875C19.5777 88.1098 15.087 86.5101 11.562 82.9851C8.03696 79.4601 6.4373 74.9694 5.67211 69.278C4.91856 63.6718 4.92578 56.4737 4.92578 47.2728Z" fill="white"/>
<path opacity="0.5" d="M64.7001 37.5013C65.7449 36.2485 67.6094 36.0799 68.8626 37.1243C70.1155 38.169 70.2841 40.0335 69.2397 41.2868L62.1611 49.7811C60.817 51.3941 59.6079 52.8511 58.4833 53.8667C57.2981 54.9369 55.8067 55.8899 53.8399 55.8903C51.8722 55.8903 50.3781 54.9373 49.1926 53.8667C48.0679 52.851 46.859 51.3941 45.5148 49.7811L44.4915 48.5501C43.0316 46.7983 42.1333 45.732 41.3946 45.0646C41.0519 44.7552 40.8457 44.6309 40.7483 44.5838C40.7283 44.5741 40.7146 44.5677 40.706 44.5645C40.697 44.5679 40.6827 44.5746 40.6637 44.5838C40.5659 44.6312 40.363 44.756 40.0212 45.0646C39.2824 45.732 38.3846 46.7977 36.9243 48.5501L29.8457 57.0444C28.801 58.2973 26.9365 58.4658 25.6832 57.4214C24.4303 56.3767 24.2618 54.5122 25.3062 53.2589L32.3848 44.7646C33.7289 43.1516 34.9379 41.6946 36.0626 40.679C37.2478 39.6088 38.7391 38.6558 40.706 38.6554C42.6737 38.6554 44.1677 39.6084 45.3532 40.679C46.4779 41.6947 47.6869 43.1516 49.031 44.7646L50.0544 45.9956C51.5142 47.7474 52.4125 48.8137 53.1512 49.4811C53.4939 49.7905 53.7001 49.9148 53.7975 49.962C53.8166 49.9711 53.8311 49.9741 53.8399 49.9773C53.8488 49.9739 53.864 49.9707 53.8822 49.962C53.9799 49.9145 54.1829 49.7897 54.5246 49.4811C55.2635 48.8137 56.1612 47.748 57.6215 45.9956L64.7001 37.5013Z" fill="white"/>
<path opacity="0.5" d="M83.7106 19.697C83.7106 14.8018 79.7422 10.8334 74.8469 10.8334C69.9517 10.8334 65.9833 14.8018 65.9833 19.697C65.9833 24.5923 69.9517 28.5607 74.8469 28.5607C79.7422 28.5607 83.7106 24.5923 83.7106 19.697ZM89.6197 19.697C89.6197 27.8558 83.0057 34.4698 74.8469 34.4698C66.6882 34.4698 60.0742 27.8558 60.0742 19.697C60.0742 11.5383 66.6882 4.92432 74.8469 4.92432C83.0057 4.92432 89.6197 11.5383 89.6197 19.697Z" fill="white"/>
</svg>
