<svg width="95" height="95" viewBox="0 0 95 95" fill="none" xmlns="http://www.w3.org/2000/svg">
<path opacity="0.5" d="M18.7138 47C18.7138 49.6293 20.9228 52.8037 26.3117 55.4982C31.524 58.1043 38.9309 59.803 47.2744 59.803C55.6178 59.803 63.0247 58.1043 68.237 55.4982C73.626 52.8037 75.835 49.6293 75.835 47H81.7441C81.7441 53.0733 76.8971 57.7754 70.88 60.784C64.686 63.881 56.3363 65.7121 47.2744 65.7121C38.2125 65.7121 29.8627 63.881 23.6688 60.784C17.6516 57.7754 12.8047 53.0733 12.8047 47H18.7138Z" fill="white"/>
<path d="M12.8047 70.6365V23.3637C12.8047 21.732 14.1275 20.4092 15.7592 20.4092C17.391 20.4092 18.7138 21.732 18.7138 23.3637V70.6365C18.7138 72.2682 17.391 73.591 15.7592 73.591C14.1275 73.591 12.8047 72.2682 12.8047 70.6365Z" fill="white"/>
<path d="M75.832 70.6365V23.3637C75.832 21.732 77.1548 20.4092 78.7866 20.4092C80.4183 20.4092 81.7411 21.732 81.7411 23.3637V70.6365C81.7411 72.2682 80.4183 73.591 78.7866 73.591C77.1548 73.591 75.832 72.2682 75.832 70.6365Z" fill="white"/>
<path d="M75.835 23.3635C75.835 20.7342 73.626 17.5598 68.237 14.8653C63.0247 12.2592 55.6178 10.5605 47.2744 10.5605C38.9309 10.5605 31.524 12.2592 26.3117 14.8653C20.9228 17.5598 18.7138 20.7342 18.7138 23.3635C18.7138 25.9928 20.9228 29.1671 26.3117 31.8617C31.524 34.4678 38.9309 36.1665 47.2744 36.1665C55.6178 36.1665 63.0247 34.4678 68.237 31.8617C73.626 29.1671 75.835 25.9928 75.835 23.3635ZM81.7441 23.3635C81.7441 29.4368 76.8971 34.1389 70.88 37.1475C64.686 40.2445 56.3363 42.0756 47.2744 42.0756C38.2125 42.0756 29.8627 40.2445 23.6688 37.1475C17.6516 34.1389 12.8047 29.4368 12.8047 23.3635C12.8047 17.2902 17.6516 12.5881 23.6688 9.57946C29.8627 6.48249 38.2125 4.65137 47.2744 4.65137C56.3363 4.65137 64.686 6.48249 70.88 9.57946C76.8971 12.5881 81.7441 17.2902 81.7441 23.3635Z" fill="white"/>
<path d="M18.7138 70.6362C18.7138 73.2656 20.9228 76.4399 26.3117 79.1344C31.524 81.7406 38.9309 83.4393 47.2744 83.4393C55.6178 83.4393 63.0247 81.7406 68.237 79.1344C73.626 76.4399 75.835 73.2656 75.835 70.6362H81.7441C81.7441 76.7095 76.8971 81.4117 70.88 84.4203C64.686 87.5172 56.3363 89.3484 47.2744 89.3484C38.2125 89.3484 29.8627 87.5172 23.6688 84.4203C17.6516 81.4117 12.8047 76.7095 12.8047 70.6362H18.7138Z" fill="white"/>
</svg>
