<svg width="95" height="95" viewBox="0 0 95 95" fill="none" xmlns="http://www.w3.org/2000/svg">
<path d="M79.7758 39.3954C79.7758 31.8836 79.7699 26.5468 79.2256 22.4983C78.6927 18.5347 77.692 16.2518 76.0247 14.5845C74.3574 12.9172 72.0745 11.9165 68.1109 11.3836C64.0624 10.8393 58.7256 10.8334 51.2138 10.8334H43.3346C35.8228 10.8334 30.486 10.8393 26.4375 11.3836C22.4739 11.9165 20.191 12.9172 18.5237 14.5845C16.8565 16.2518 15.8557 18.5347 15.3228 22.4983C14.7786 26.5468 14.7727 31.8836 14.7727 39.3954V55.1538C14.7727 62.6656 14.7786 68.0024 15.3228 72.0509C15.8557 76.0144 16.8565 78.2974 18.5237 79.9647C20.191 81.6319 22.4739 82.6327 26.4375 83.1656C30.486 83.7098 35.8228 83.7157 43.3346 83.7157H51.2138C58.7256 83.7157 64.0624 83.7098 68.1109 83.1656C72.0745 82.6327 74.3574 81.6319 76.0247 79.9647C77.692 78.2974 78.6927 76.0144 79.2256 72.0509C79.7699 68.0024 79.7758 62.6656 79.7758 55.1538V39.3954ZM85.6852 55.1538C85.6852 62.4988 85.6907 68.3057 85.0811 72.8396C84.4601 77.458 83.1508 81.1948 80.2028 84.1428C77.2548 87.0908 73.518 88.4 68.8996 89.0211C64.3658 89.6307 58.5588 89.6251 51.2138 89.6251H43.3346C35.9896 89.6251 30.1827 89.6307 25.6488 89.0211C21.0304 88.4 17.2936 87.0908 14.3456 84.1428C11.3976 81.1948 10.0883 77.458 9.4673 72.8396C8.85774 68.3057 8.86328 62.4988 8.86328 55.1538V39.3954C8.86328 32.0504 8.85774 26.2435 9.4673 21.7096C10.0883 17.0912 11.3976 13.3544 14.3456 10.4064C17.2936 7.45838 21.0304 6.14914 25.6488 5.52809C30.1827 4.91853 35.9896 4.92407 43.3346 4.92407H51.2138C58.5588 4.92407 64.3658 4.91853 68.8996 5.52809C73.518 6.14914 77.2548 7.45838 80.2028 10.4064C83.1508 13.3544 84.4601 17.0912 85.0811 21.7096C85.6907 26.2435 85.6852 32.0504 85.6852 39.3954V55.1538Z" fill="white"/>
<path opacity="0.5" d="M63.0299 44.3203C64.6618 44.3203 65.9846 45.6432 65.9846 47.275C65.9846 48.9068 64.6618 50.2297 63.0299 50.2297H31.5133C29.8815 50.2297 28.5586 48.9068 28.5586 47.275C28.5586 45.6432 29.8815 44.3203 31.5133 44.3203H63.0299Z" fill="white"/>
<path opacity="0.5" d="M63.0299 28.5615C64.6618 28.5615 65.9846 29.8844 65.9846 31.5162C65.9846 33.148 64.6618 34.4709 63.0299 34.4709H31.5133C29.8815 34.4709 28.5586 33.148 28.5586 31.5162C28.5586 29.8844 29.8815 28.5615 31.5133 28.5615H63.0299Z" fill="white"/>
<path opacity="0.5" d="M51.2112 60.0791C52.843 60.0791 54.1659 61.402 54.1659 63.0338C54.1659 64.6656 52.843 65.9885 51.2112 65.9885H31.5133C29.8815 65.9885 28.5586 64.6656 28.5586 63.0338C28.5586 61.402 29.8815 60.0791 31.5133 60.0791H51.2112Z" fill="white"/>
</svg>
