<svg width="95" height="95" viewBox="0 0 95 95" fill="none" xmlns="http://www.w3.org/2000/svg">
<path opacity="0.5" d="M8.86329 59.0938C8.86329 57.4619 10.1865 56.1387 11.8184 56.1387C13.4502 56.1387 14.7734 57.4619 14.7734 59.0938C14.7734 64.7484 14.7797 68.6923 15.1797 71.668C15.5683 74.5587 16.2788 76.0903 17.3691 77.1807C18.4594 78.2709 19.9904 78.9815 22.8809 79.3701C25.8566 79.7702 29.8011 79.7764 35.4561 79.7764H59.0938C64.7484 79.7764 68.6923 79.7702 71.668 79.3701C74.5585 78.9815 76.0894 78.2708 77.1797 77.1807C78.27 76.0903 78.9815 74.5587 79.3701 71.668C79.7701 68.6923 79.7764 64.7484 79.7764 59.0938C79.7764 57.4621 81.0988 56.1389 82.7305 56.1387C84.3623 56.1387 85.6856 57.4619 85.6856 59.0938C85.6856 64.5816 85.6919 68.995 85.2266 72.4561C84.7498 76.002 83.7297 78.9881 81.3584 81.3594C78.9872 83.7305 76.001 84.7498 72.4551 85.2266C68.9942 85.6918 64.5813 85.6855 59.0938 85.6855H35.4561C29.9682 85.6855 25.5548 85.6919 22.0938 85.2266C18.5478 84.7498 15.5617 83.7306 13.1904 81.3594C10.8192 78.9881 9.79903 76.002 9.32227 72.4561C8.85694 68.995 8.86329 64.5816 8.86329 59.0938Z" fill="white"/>
<path d="M44.3209 11.8184V55.4229L33.6978 43.8037C32.5967 42.5994 30.7273 42.5161 29.523 43.6172C28.3191 44.7183 28.2356 46.5868 29.3365 47.791L45.0953 65.0273L45.2027 65.1387C45.7539 65.6814 46.4983 65.9883 47.276 65.9883C48.1053 65.9882 48.897 65.6395 49.4566 65.0273L65.2144 47.791C66.3153 46.5868 66.2319 44.7183 65.0279 43.6172C63.8236 42.5161 61.9542 42.5994 60.8531 43.8037L50.2301 55.4229V11.8184C50.2299 10.1868 48.9075 8.8645 47.276 8.86426C45.6442 8.86426 44.321 10.1867 44.3209 11.8184Z" fill="white"/>
</svg>
