<svg width="95" height="95" viewBox="0 0 95 95" fill="none" xmlns="http://www.w3.org/2000/svg">
<path d="M83.7135 40.8091C83.7135 34.3043 83.7098 29.6331 83.3634 25.9895C83.0212 22.3898 82.3664 20.0979 81.2475 18.2719C79.8669 16.019 77.9719 14.124 75.719 12.7434C73.8929 11.6245 71.601 10.9696 68.0014 10.6274C64.3577 10.281 59.6865 10.2773 53.1818 10.2773H41.363C34.8583 10.2773 30.1871 10.281 26.5434 10.6274C22.9438 10.9696 20.6519 11.6245 18.8258 12.7434C16.5729 14.124 14.6779 16.019 13.2973 18.2719C12.1784 20.0979 11.5236 22.3898 11.1814 25.9895C10.835 29.6331 10.8313 34.3043 10.8313 40.8091V44.7486C10.8313 49.3778 10.8331 52.7017 11.0121 55.3247C11.1892 57.9202 11.5294 59.6137 12.1047 61.0033C13.804 65.1058 17.0662 68.3681 21.1688 70.0674C23.1999 70.9083 25.7925 71.221 30.7369 71.3062C32.3567 71.3341 33.7737 71.3572 34.9458 71.487C36.1728 71.6229 37.3744 71.8974 38.5276 72.5681C39.6702 73.2329 40.4943 74.1214 41.213 75.1073C41.8957 76.044 42.5984 77.2377 43.3982 78.589L45.5334 82.1978C46.2929 83.4803 48.2519 83.4804 49.0114 82.1978L51.1466 78.589C51.9464 77.2377 52.6491 76.044 53.3318 75.1073C54.0505 74.1214 54.8746 73.2329 56.0172 72.5681C57.1704 71.8974 58.372 71.6229 59.599 71.487C60.7712 71.3572 62.188 71.3341 63.8079 71.3062C68.7524 71.221 71.3449 70.9083 73.376 70.0674C77.4785 68.3681 80.7408 65.1058 82.4401 61.0033C83.0154 59.6137 83.3556 57.9202 83.5327 55.3247C83.7117 52.7017 83.7135 49.3778 83.7135 44.7486V40.8091ZM89.6229 44.7486C89.6229 49.2973 89.6264 52.8578 89.4306 55.7287C89.2329 58.6253 88.8226 61.036 87.8994 63.2655C85.6002 68.816 81.1887 73.2275 75.6382 75.5266C72.4674 76.8397 68.8559 77.1303 63.9117 77.2156C62.1819 77.2454 61.0844 77.2693 60.2492 77.3618C59.4702 77.4481 59.1682 77.5744 58.9911 77.6773C58.8044 77.7859 58.548 77.9829 58.1063 78.589C57.6283 79.2448 57.0887 80.1513 56.2326 81.5976L54.0974 85.2063C51.0499 90.3551 43.4949 90.3551 40.4474 85.2063L38.3122 81.5976C37.4561 80.1513 36.9165 79.2448 36.4385 78.589C35.9968 77.9829 35.7404 77.7859 35.5537 77.6773C35.3766 77.5744 35.0746 77.4481 34.2956 77.3618C33.4604 77.2693 32.3629 77.2454 30.633 77.2156C25.6889 77.1304 22.0774 76.8397 18.9066 75.5266C13.3561 73.2275 8.94455 68.816 6.64545 63.2655C5.72217 61.036 5.31193 58.6253 5.11424 55.7287C4.91836 52.8578 4.92188 49.2973 4.92188 44.7486V40.8091C4.92188 34.4183 4.91969 29.4161 5.29891 25.4278C5.68234 21.3965 6.4782 18.0965 8.26129 15.1864C10.1291 12.1384 12.6923 9.57517 15.7403 7.70733C18.6504 5.92424 21.9505 5.12838 25.9817 4.74495C29.9701 4.36573 34.9723 4.36792 41.363 4.36792H53.1818C59.5725 4.36792 64.5747 4.36573 68.5631 4.74495C72.5943 5.12838 75.8944 5.92424 78.8045 7.70733C81.8525 9.57517 84.4157 12.1384 86.2835 15.1864C88.0666 18.0965 88.8625 21.3965 89.2459 25.4278C89.6251 29.4161 89.6229 34.4183 89.6229 40.8091V44.7486Z" fill="white"/>
<path opacity="0.5" d="M42.5251 28.4902C44.6385 24.6989 45.6953 22.8032 47.2751 22.8032C48.855 22.8032 49.9117 24.6989 52.0252 28.4902L52.5719 29.4711C53.1725 30.5484 53.4728 31.0871 53.941 31.4425C54.4092 31.798 54.9923 31.9299 56.1586 32.1938L57.2203 32.434C61.3244 33.3626 63.3764 33.8269 63.8646 35.3968C64.3528 36.9668 62.9539 38.6026 60.156 41.8744L59.4322 42.7208C58.6371 43.6506 58.2396 44.1154 58.0607 44.6905C57.8819 45.2656 57.942 45.8858 58.0622 47.1263L58.1716 48.2556C58.5946 52.6208 58.8061 54.8034 57.528 55.7737C56.2499 56.744 54.3285 55.8594 50.4859 54.0901L49.4918 53.6324C48.3998 53.1296 47.8539 52.8782 47.2751 52.8782C46.6964 52.8782 46.1504 53.1296 45.0585 53.6324L44.0643 54.0901C40.2217 55.8594 38.3004 56.744 37.0223 55.7737C35.7441 54.8034 35.9556 52.6208 36.3786 48.2556L36.4881 47.1263C36.6083 45.8858 36.6684 45.2656 36.4895 44.6905C36.3107 44.1154 35.9132 43.6506 35.1181 42.7208L34.3943 41.8744C31.5964 38.6026 30.1974 36.9668 30.6857 35.3968C31.1739 33.8269 33.2259 33.3626 37.3299 32.434L38.3917 32.1938C39.5579 31.9299 40.1411 31.798 40.6093 31.4425C41.0775 31.0871 41.3778 30.5484 41.9783 29.4711L42.5251 28.4902Z" stroke="white" stroke-width="5.78424"/>
</svg>
