<svg width="95" height="95" viewBox="0 0 95 95" fill="none" xmlns="http://www.w3.org/2000/svg">
<path d="M56.4425 5.67251C62.9629 4.74148 68.7969 9.79937 68.7977 16.3858V21.8068C73.4792 24.2818 76.6696 29.1998 76.6697 34.8637V50.9802C74.863 49.9036 72.8763 49.0979 70.7653 48.6188V34.8637C70.7652 29.9724 66.8 26.0071 61.9087 26.0071H13.6896V74.2271C13.69 79.1181 17.6551 83.0837 22.5462 83.0837H51.8536C54.2856 85.4882 57.318 87.2857 60.7058 88.2332C59.4258 88.7171 58.1722 88.9881 56.9889 88.9881H22.5462C14.3941 88.9881 7.78554 82.379 7.78516 74.2271V19.1189H7.79225C7.78866 19.0258 7.78516 18.9317 7.78516 18.8377C7.78578 15.271 10.4088 12.2464 13.9397 11.7419L56.4425 5.67251ZM47.1476 48.641C48.7781 48.641 50.0998 49.9627 50.0998 51.5932C50.0996 53.2234 48.7779 54.5454 47.1476 54.5454H25.4984C23.8681 54.5454 22.5464 53.2234 22.5462 51.5932C22.5462 49.9627 23.8679 48.641 25.4984 48.641H47.1476ZM56.9889 34.8637C58.6192 34.8639 59.9411 36.1856 59.9411 37.8159C59.9409 39.4461 58.6191 40.768 56.9889 40.7681H25.4984C23.8681 40.7681 22.5464 39.4462 22.5462 37.8159C22.5462 36.1855 23.8679 34.8637 25.4984 34.8637H56.9889ZM62.8933 16.3858C62.8925 13.3924 60.2407 11.0918 57.2772 11.5148L14.7736 17.5887C14.152 17.6781 13.6902 18.2097 13.6896 18.8377C13.6897 19.5355 14.2567 20.1027 14.9545 20.1027H62.8933V16.3858Z" fill="white"/>
<path opacity="0.5" d="M66.2235 48.1116C77.5239 48.1117 86.6617 57.2753 86.6619 68.5499C86.6618 79.8247 77.5239 88.9882 66.2235 88.9883C54.9231 88.9882 45.7853 79.8246 45.7852 68.5499C45.7853 57.2753 54.9232 48.1117 66.2235 48.1116ZM66.2235 52.0549C57.1403 52.055 49.7537 59.4274 49.7535 68.5499C49.7536 77.6725 57.1402 85.0448 66.2235 85.045C75.3068 85.0449 82.6934 77.6726 82.6935 68.5499C82.6934 59.4273 75.3068 52.055 66.2235 52.0549ZM66.2244 64.7317C67.3328 64.7318 68.2075 65.6271 68.2077 66.703V77.7831C68.2077 78.8591 67.3329 79.7551 66.2244 79.7552C65.1159 79.7552 64.2402 78.8591 64.2402 77.7831V66.703C64.2405 65.6271 65.116 64.7317 66.2244 64.7317ZM66.2253 58.7308C67.5887 58.7308 68.6709 59.8328 68.6709 61.1638C68.6707 62.4947 67.5886 63.5968 66.2253 63.5968C64.8622 63.5966 63.7808 62.4946 63.7807 61.1638C63.7807 59.8329 64.8621 58.731 66.2253 58.7308Z" fill="white"/>
</svg>
