<svg width="95" height="95" viewBox="0 0 95 95" fill="none" xmlns="http://www.w3.org/2000/svg">
<g clip-path="url(#clip0_277_3094)">
<path opacity="0.5" d="M47.7327 0.494263C68.8642 0.49437 86.7619 15.9829 86.7622 35.7255V36.1502L86.7485 37.6102C86.6137 44.7766 86.7377 49.9873 84.4509 54.3996C82.0549 59.0225 78.5592 62.4383 74.7181 66.0959L74.7082 66.1059L69.1476 71.3602C68.3462 72.1175 67.8912 73.1739 67.8912 74.2789C67.8911 77.4253 66.3896 80.2188 64.0673 81.9786C60.8256 83.9588 57.7203 83.9068 52.3267 83.9207H42.2207C36.8271 83.9068 33.7217 83.9588 30.4801 81.9786C28.1577 80.2188 26.6562 77.4253 26.6562 74.2789C26.6562 73.1739 26.2012 72.1175 25.3997 71.3602L19.8392 66.1059L19.8293 66.0959C15.9882 62.4383 12.4924 59.0225 10.0964 54.3996C7.80968 49.9873 7.93367 44.7766 7.79884 37.6102L7.78516 36.1502V35.7255C7.78547 15.9829 25.6832 0.49437 46.8147 0.494263C46.9678 0.494264 47.1209 0.497635 47.2737 0.499258C47.4265 0.497635 47.5796 0.494264 47.7327 0.494263ZM47.2737 8.0828C47.1211 8.0809 46.9679 8.07906 46.8147 8.07905C29.0082 8.07916 15.3401 20.974 15.3398 35.7255V36.1502C15.3398 43.3508 15.1079 47.6383 16.7977 50.8988C18.5295 54.2403 21.1031 56.8563 25.0178 60.5844L30.5771 65.8374C32.8953 68.028 34.2095 71.0828 34.2095 74.2789C34.2097 75.4153 35.1277 76.3359 36.2596 76.3359H58.2878C59.4197 76.3359 60.3377 75.4153 60.3378 74.2789C60.3378 71.0828 61.6521 68.028 63.9702 65.8374L69.5295 60.5844C73.4442 56.8563 76.0178 54.2403 77.7497 50.8988C79.4395 47.6383 79.2076 43.3508 79.2076 36.1502V35.7255C79.2073 20.974 65.5391 8.07916 47.7327 8.07905C47.5795 8.07906 47.4263 8.0809 47.2737 8.0828Z" fill="white"/>
<path opacity="0.5" d="M57.0036 87.2578C59.6807 87.2579 61.1779 89.0009 61.1779 91.151C61.1775 93.301 59.6805 95.0442 57.0036 95.0443H39.768C37.091 95.0443 35.5941 93.301 35.5938 91.151C35.5938 89.0009 37.0908 87.2578 39.768 87.2578H57.0036Z" fill="white"/>
<path d="M43.91 22.7413C46.0335 22.7413 47.886 23.2437 49.4674 24.2485C51.0488 25.2533 52.2688 26.7468 53.1272 28.7292C54.0083 30.6845 54.4488 33.0606 54.4488 35.8577V50.9219C54.4488 51.3309 54.1296 51.6625 53.7358 51.6625H50.7566C50.3628 51.6625 50.0435 51.3309 50.0435 50.9219V45.071C50.0435 44.662 49.7243 44.3304 49.3305 44.3304H38.4217C38.0279 44.3304 37.7086 44.662 37.7086 45.071V50.9219C37.7086 51.3309 37.3894 51.6625 36.9956 51.6625H34.0841C33.6903 51.6625 33.3711 51.3309 33.3711 50.9219V35.8577C33.3711 33.0606 33.8003 30.6845 34.6588 28.7292C35.5399 26.7468 36.7711 25.2533 38.3525 24.2485C39.9339 23.2437 41.7864 22.7413 43.91 22.7413ZM49.3305 39.8904C49.7243 39.8904 50.0435 39.5588 50.0435 39.1498V35.3689C50.0435 32.7348 49.5013 30.7524 48.4169 29.4217C47.3325 28.0639 45.8189 27.385 43.8761 27.385C41.9332 27.385 40.4196 28.0639 39.3352 29.4217C38.2508 30.7524 37.7086 32.7348 37.7086 35.3689V39.1498C37.7086 39.5588 38.0279 39.8904 38.4217 39.8904H49.3305Z" fill="white"/>
<path d="M56.9016 25.7038C56.9016 25.2948 57.2209 24.9632 57.6147 24.9632H60.4669C60.8607 24.9632 61.1799 25.2948 61.1799 25.7038V50.8849C61.1799 51.2939 60.8607 51.6255 60.4669 51.6255H57.6147C57.2209 51.6255 56.9016 51.2939 56.9016 50.8849V25.7038Z" fill="white"/>
</g>
<defs>
<clipPath id="clip0_277_3094">
<rect width="94.55" height="94.55" rx="19.6979" fill="white"/>
</clipPath>
</defs>
</svg>
