<svg width="95" height="95" viewBox="0 0 95 95" fill="none" xmlns="http://www.w3.org/2000/svg">
<path opacity="0.5" d="M47.2725 4.92395C50.382 4.92395 53.1511 6.46674 55.4287 8.82532C57.6949 11.1721 59.6102 14.448 61.1592 18.3204C62.7173 22.2157 63.9269 26.7718 64.7461 31.7159C65.4142 35.7483 65.8163 40.003 65.9424 44.3204H86.6689C88.3005 44.3206 89.6229 45.643 89.623 47.2745C89.623 48.9063 88.3006 50.2294 86.6689 50.2296H65.9424C65.8163 54.547 65.4142 58.8018 64.7461 62.8341C63.9269 67.7782 62.7173 72.3344 61.1592 76.2296C59.6102 80.1019 57.6949 83.378 55.4287 85.7247C53.1511 88.0832 50.382 89.6251 47.2725 89.6251C44.1632 89.625 41.3947 88.083 39.1172 85.7247C36.851 83.378 34.9357 80.1019 33.3867 76.2296C31.8286 72.3344 30.618 67.7782 29.7988 62.8341C29.1307 58.8018 28.7286 54.547 28.6025 50.2296H7.87695C6.24512 50.2296 4.92188 48.9064 4.92188 47.2745C4.92205 45.6429 6.24523 44.3204 7.87695 44.3204H28.6025C28.7286 40.003 29.1307 35.7483 29.7988 31.7159C30.618 26.7718 31.8286 22.2157 33.3867 18.3204C34.9357 14.448 36.851 11.1721 39.1172 8.82532C41.3947 6.46691 44.1631 4.92406 47.2725 4.92395ZM34.5156 50.2296C34.6399 54.2356 35.0154 58.1654 35.6289 61.8683C36.3936 66.4833 37.5046 70.6132 38.873 74.0343C40.2507 77.4784 41.8106 80.0064 43.3682 81.6193C44.9141 83.22 46.2433 83.7158 47.2725 83.7159C48.3017 83.7159 49.6316 83.2203 51.1777 81.6193C52.7353 80.0064 54.2943 77.4783 55.6719 74.0343C57.0403 70.6132 58.1523 66.4835 58.917 61.8683C59.5305 58.1654 59.906 54.2356 60.0303 50.2296H34.5156ZM47.2725 10.8341C46.2433 10.8342 44.9141 11.3299 43.3682 12.9308C41.8107 14.5437 40.2506 17.0709 38.873 20.5148C37.5046 23.936 36.3936 28.0665 35.6289 32.6818C35.0154 36.3847 34.6399 40.3143 34.5156 44.3204H60.0303C59.906 40.3143 59.5305 36.3847 58.917 32.6818C58.1523 28.0665 57.0404 23.936 55.6719 20.5148C54.2944 17.0711 52.7352 14.5436 51.1777 12.9308C49.6316 11.3297 48.3017 10.8341 47.2725 10.8341Z" fill="white"/>
<path d="M83.7139 47.2745C83.7138 42.4891 82.7717 37.7504 80.9404 33.3292C79.1091 28.9081 76.4248 24.8908 73.041 21.507C69.6571 18.1231 65.639 15.4389 61.2178 13.6075C56.7966 11.7763 52.0578 10.8341 47.2725 10.8341C42.4871 10.8341 37.7483 11.7762 33.3271 13.6075C28.906 15.4389 24.8887 18.1231 21.5049 21.507C18.121 24.8908 15.4368 28.908 13.6055 33.3292C11.7742 37.7504 10.8321 42.4891 10.832 47.2745C10.832 52.0599 11.7742 56.7987 13.6055 61.2198C15.4368 65.6411 18.121 69.6592 21.5049 73.0431C24.8887 76.4269 28.906 79.1112 33.3271 80.9425C37.7483 82.7738 42.4871 83.7159 47.2725 83.7159C52.0578 83.7159 56.7967 82.7737 61.2178 80.9425C65.639 79.1112 69.6571 76.427 73.041 73.0431C76.4249 69.6592 79.1091 65.6411 80.9404 61.2198C82.7716 56.7988 83.7139 52.0599 83.7139 47.2745ZM89.623 47.2745C89.623 52.8361 88.5277 58.3434 86.3994 63.4816C84.2711 68.6198 81.1514 73.2882 77.2188 77.2208C73.2861 81.1534 68.6177 84.2732 63.4795 86.4015C58.3413 88.5298 52.834 89.6251 47.2725 89.6251C41.7111 89.6251 36.2044 88.5297 31.0664 86.4015C25.9282 84.2732 21.2588 81.1534 17.3262 77.2208C13.3937 73.2883 10.2747 68.6196 8.14648 63.4816C6.01817 58.3434 4.92187 52.8361 4.92188 47.2745C4.92192 41.7132 6.01827 36.2065 8.14648 31.0685C10.2748 25.9303 13.3936 21.2609 17.3262 17.3282C21.2588 13.3956 25.9282 10.2769 31.0664 8.14856C36.2044 6.02035 41.7111 4.92399 47.2725 4.92395C52.834 4.92395 58.3413 6.02025 63.4795 8.14856C68.6175 10.2768 73.2862 13.3958 77.2188 17.3282C81.1514 21.2609 84.2711 25.9303 86.3994 31.0685C88.5276 36.2065 89.623 41.7132 89.623 47.2745Z" fill="white"/>
</svg>
