<svg width="95" height="95" viewBox="0 0 95 95" fill="none" xmlns="http://www.w3.org/2000/svg">
<path d="M79.7724 35.1817C79.7724 29.5281 79.7644 25.585 79.3646 22.6095C78.976 19.7189 78.2659 18.187 77.1756 17.0967C76.0853 16.0064 74.5534 15.2963 71.6628 14.9077C68.6873 14.5079 64.7442 14.4999 59.0906 14.4999H35.4542C29.8006 14.4999 25.8574 14.5079 22.882 14.9077C19.9914 15.2963 18.4594 16.0064 17.3691 17.0967C16.2789 18.187 15.5688 19.7189 15.1802 22.6095C14.7803 25.585 14.7724 29.5281 14.7724 35.1817V54.8787C14.7724 58.6763 14.7781 61.2278 15.034 63.1307C15.2784 64.9483 15.7017 65.7258 16.215 66.2391C16.7284 66.7524 17.5059 67.1757 19.3235 67.4201C21.2263 67.676 23.7778 67.6817 27.5754 67.6817H66.9694C70.767 67.6817 73.3184 67.676 75.2213 67.4201C77.0389 67.1757 77.8164 66.7524 78.3297 66.2391C78.8431 65.7258 79.2664 64.9483 79.5108 63.1307C79.7666 61.2278 79.7724 58.6763 79.7724 54.8787V35.1817ZM85.6815 54.8787C85.6815 58.5093 85.6871 61.5312 85.366 63.9193C85.0334 66.3917 84.3015 68.6232 82.5076 70.417C80.7138 72.2108 78.4824 72.9428 76.01 73.2754C73.6218 73.5965 70.5999 73.5908 66.9694 73.5908H27.5754C23.9448 73.5908 20.9229 73.5965 18.5348 73.2754C16.0624 72.9428 13.831 72.2108 12.0371 70.417C10.2433 68.6232 9.51136 66.3917 9.17875 63.9193C8.85767 61.5312 8.86329 58.5093 8.86329 54.8787V35.1817C8.86329 29.6945 8.85589 25.2817 9.32109 21.8209C9.79782 18.275 10.82 15.29 13.1912 12.9188C15.5624 10.5476 18.5475 9.52536 22.0933 9.04863C25.5541 8.58342 29.967 8.59083 35.4542 8.59083H59.0906C64.5778 8.59083 68.9906 8.58342 72.4514 9.04863C75.9973 9.52536 78.9823 10.5476 81.3535 12.9188C83.7247 15.29 84.7469 18.275 85.2237 21.8209C85.6889 25.2817 85.6815 29.6945 85.6815 35.1817V54.8787Z" fill="white"/>
<path opacity="0.5" d="M86.6682 79.5C88.3 79.5 89.6228 80.8228 89.6228 82.4545C89.6228 84.0863 88.3 85.4091 86.6682 85.4091H7.88033C6.24858 85.4091 4.92578 84.0863 4.92578 82.4545C4.92578 80.8228 6.24858 79.5 7.88033 79.5H86.6682Z" fill="white"/>
<path opacity="0.5" d="M59.0909 55.8635C60.7227 55.8635 62.0455 57.1863 62.0455 58.8181C62.0455 60.4498 60.7227 61.7726 59.0909 61.7726H35.4545C33.8228 61.7726 32.5 60.4498 32.5 58.8181C32.5 57.1863 33.8228 55.8635 35.4545 55.8635H59.0909Z" fill="white"/>
</svg>
