<svg width="95" height="95" viewBox="0 0 95 95" fill="none" xmlns="http://www.w3.org/2000/svg">
<path opacity="0.5" d="M71.8937 33.2698C71.8937 20.9242 61.074 10.5606 47.2725 10.5606C33.471 10.5606 22.6513 20.9242 22.6513 33.2698C22.6513 46.3814 30.9455 61.5746 43.3908 66.8931C45.8503 67.9442 48.6946 67.9442 51.1542 66.8931C63.5995 61.5746 71.8937 46.3814 71.8937 33.2698ZM77.8028 33.2698C77.8028 48.2832 68.4956 65.9108 53.4778 72.3291C49.5351 74.0139 45.0099 74.0139 41.0672 72.3291C26.0494 65.9108 16.7422 48.2832 16.7422 33.2698C16.7422 17.268 30.6146 4.65149 47.2725 4.65149C63.9304 4.65149 77.8028 17.268 77.8028 33.2698Z" fill="white"/>
<path d="M52.1951 35.1818C52.1951 32.4623 49.9904 30.2576 47.2708 30.2576C44.5512 30.2576 42.3466 32.4623 42.3466 35.1818C42.3466 37.9014 44.5512 40.1061 47.2708 40.1061C49.9904 40.1061 52.1951 37.9014 52.1951 35.1818ZM58.1042 35.1818C58.1042 41.1649 53.2539 46.0152 47.2708 46.0152C41.2877 46.0152 36.4375 41.1649 36.4375 35.1818C36.4375 29.1988 41.2877 24.3485 47.2708 24.3485C53.2539 24.3485 58.1042 29.1988 58.1042 35.1818Z" fill="white"/>
<path d="M4.92578 68.6666C4.92578 64.7317 6.98679 61.3205 9.99237 58.5988C11.2019 57.5036 13.0712 57.597 14.1664 58.8066C15.2599 60.0159 15.167 61.8819 13.9587 62.9768C11.7223 65.0018 10.8349 66.9414 10.8349 68.6666C10.8349 71.6749 13.6864 75.3827 20.6295 78.5074C27.2961 81.5074 36.7148 83.4393 47.2743 83.4393C57.8338 83.4393 67.2524 81.5074 73.919 78.5074C80.8621 75.3827 83.7137 71.6749 83.7137 68.6666C83.7137 66.9414 82.8262 65.0018 80.5898 62.9768C79.3815 61.8819 79.2886 60.0159 80.3821 58.8066C81.4774 57.597 83.3466 57.5036 84.5562 58.5988C87.5617 61.3205 89.6228 64.7317 89.6228 68.6666C89.6228 75.4487 83.6565 80.6059 76.3427 83.8971C68.7515 87.3131 58.4714 89.3484 47.2743 89.3484C36.0772 89.3484 25.797 87.3131 18.2058 83.8971C10.892 80.6059 4.92578 75.4487 4.92578 68.6666Z" fill="white"/>
</svg>
