<svg width="95" height="95" viewBox="0 0 95 95" fill="none" xmlns="http://www.w3.org/2000/svg">
<path d="M70.9076 35.4758C70.9076 21.7619 60.2239 10.8342 47.2738 10.8342C34.3238 10.8343 23.64 21.7619 23.64 35.4758V38.2512C23.64 42.1419 22.5308 45.9544 20.4408 49.2083L16.0785 56.0002C13.1088 60.6236 15.4627 66.7661 20.3851 68.1594C37.9904 73.1428 56.5582 73.1429 74.1634 68.1594C79.0856 66.7658 81.4397 60.6235 78.4701 56.0002L74.1068 49.2083C72.0169 45.9545 70.9076 42.1419 70.9076 38.2512V35.4758ZM76.8177 38.2512C76.8177 41.023 77.6087 43.7251 79.0795 46.0149L83.4418 52.8069C88.4421 60.5918 84.7122 71.3154 75.7728 73.8459C57.1153 79.1272 37.4333 79.1272 18.7758 73.8459C9.83623 71.3155 6.10545 60.5918 11.1058 52.8069L15.4691 46.0149C16.9399 43.7251 17.7308 41.023 17.7308 38.2512V35.4758C17.7308 18.7074 30.8548 4.92418 47.2738 4.92407C63.6928 4.92407 76.8177 18.7074 76.8177 35.4758V38.2512Z" fill="white"/>
<path opacity="0.5" d="M47.2736 89.6257C56.6418 89.6256 64.7383 83.9719 67.7678 75.8884C68.3403 74.3604 67.5662 72.6574 66.0383 72.0847C64.5103 71.5121 62.8072 72.2872 62.2346 73.8152C60.103 79.5025 54.2744 83.7154 47.2736 83.7156C40.2727 83.7156 34.4433 79.5027 32.3117 73.8152C31.739 72.2871 30.036 71.512 28.508 72.0847C26.9801 72.6574 26.2061 74.3605 26.7785 75.8884C29.808 83.972 37.9053 89.6257 47.2736 89.6257Z" fill="white"/>
</svg>
