<svg width="95" height="95" viewBox="0 0 95 95" fill="none" xmlns="http://www.w3.org/2000/svg">
<path d="M16.7452 37.4261V27.1166C16.7452 24.3078 16.7406 22.4489 16.5782 21.0267C16.4245 19.6801 16.156 19.0303 15.8155 18.558C15.4751 18.0857 14.9437 17.6257 13.715 17.0541C12.4171 16.4503 10.655 15.8583 7.99034 14.9701L6.9464 14.6214C5.3985 14.1053 4.56224 12.4321 5.07823 10.8841C5.59438 9.33624 7.26755 8.49998 8.81554 9.01598L9.85851 9.36363C12.3941 10.2088 14.533 10.9169 16.2071 11.6957C17.9502 12.5065 19.4627 13.5118 20.6095 15.1029C21.7561 16.6938 22.2313 18.4461 22.4493 20.3558C22.6588 22.1903 22.6544 24.4438 22.6544 27.1166V37.4261C22.6544 43.0808 22.6606 47.0247 23.0607 50.0004C23.4493 52.8911 24.1608 54.4227 25.2511 55.5131C26.3414 56.6031 27.8724 57.3139 30.7628 57.7025C33.7385 58.1025 37.6824 58.1088 43.337 58.1088H74.8536C76.4855 58.1088 77.8087 59.432 77.8087 61.0638C77.8085 62.6955 76.4853 64.0179 74.8536 64.0179H43.337C37.8492 64.0179 33.4357 64.0243 29.9747 63.5589C26.4289 63.0822 23.4436 62.062 21.0724 59.6908C18.7012 57.3196 17.681 54.3343 17.2042 50.7884C16.7389 47.3274 16.7452 42.914 16.7452 37.4261Z" fill="white"/>
<path opacity="0.5" d="M29.5479 73.8669C27.9161 73.867 26.5937 75.1903 26.5937 76.822C26.5939 78.4537 27.9162 79.776 29.5479 79.7761C31.1796 79.7761 32.5028 78.4538 32.5029 76.822C32.5029 75.1902 31.1797 73.8669 29.5479 73.8669ZM29.5479 67.9578C34.4433 67.9578 38.4121 71.9265 38.4121 76.822C38.412 81.7174 34.4433 85.6863 29.5479 85.6863C24.6525 85.6862 20.6837 81.7174 20.6836 76.822C20.6836 71.9266 24.6525 67.9579 29.5479 67.9578Z" fill="white"/>
<path opacity="0.5" d="M65.0049 73.8669C63.3732 73.867 62.0508 75.1903 62.0508 76.822C62.0508 78.4538 63.3731 79.777 65.0049 79.7771C66.6367 79.7771 67.96 78.4538 67.96 76.822C67.9599 75.1902 66.6367 73.8669 65.0049 73.8669ZM65.0049 67.9578C69.9003 67.9578 73.8691 71.9266 73.8691 76.822C73.8691 81.7175 69.9004 85.6863 65.0049 85.6863C60.1095 85.6862 56.1406 81.7174 56.1406 76.822C56.1407 71.9266 60.1095 67.9579 65.0049 67.9578Z" fill="white"/>
<path d="M64.8086 20.6824C68.7588 20.6824 72.0578 20.675 74.5684 21.0466C77.1347 21.4266 79.6099 22.3004 81.1709 24.6677C82.7316 27.0349 82.5591 29.6535 81.8975 32.1619C81.2501 34.6159 79.9438 37.6453 78.3877 41.2761L76.6992 45.2156C75.98 46.8937 75.3525 48.3687 74.6992 49.53C74.0107 50.754 73.1693 51.8656 71.8965 52.7048C70.6237 53.5441 69.2712 53.8793 67.875 54.03C66.5501 54.1731 64.9462 54.1697 63.1201 54.1697H19.6992V48.2595H63.1201C65.0735 48.2595 66.3053 48.2559 67.2402 48.155C68.1035 48.0618 68.4362 47.9089 68.6436 47.7722C68.8509 47.6355 69.123 47.3905 69.5488 46.6336C70.0099 45.814 70.498 44.6831 71.2676 42.8875L72.9561 38.948C74.589 35.1378 75.6743 32.5857 76.1836 30.655C76.6784 28.7793 76.4279 28.2097 76.2373 27.9207C76.0467 27.6317 75.6224 27.1765 73.7031 26.8923C71.728 26.5999 68.9541 26.5925 64.8086 26.5925H19.6992V20.6824H64.8086Z" fill="white"/>
</svg>
