<svg width="96" height="95" viewBox="0 0 96 95" fill="none" xmlns="http://www.w3.org/2000/svg">
<path d="M61.0152 23.3635C61.0152 16.2926 55.283 10.5605 48.2121 10.5605C41.1412 10.5605 35.4091 16.2926 35.4091 23.3635C35.4091 30.4344 41.1412 36.1665 48.2121 36.1665C55.283 36.1665 61.0152 30.4344 61.0152 23.3635ZM66.9242 23.3635C66.9242 33.6979 58.5465 42.0756 48.2121 42.0756C37.8777 42.0756 29.5 33.6979 29.5 23.3635C29.5 13.0291 37.8777 4.65137 48.2121 4.65137C58.5465 4.65137 66.9242 13.0291 66.9242 23.3635Z" fill="white"/>
<path opacity="0.5" d="M80.7088 25.3333C80.7088 22.0074 77.2677 18.4394 71.8452 18.4394C70.2134 18.4394 68.8906 17.1166 68.8906 15.4848C68.8906 13.8531 70.2134 12.5303 71.8452 12.5303C79.4767 12.5303 86.6179 17.7809 86.6179 25.3333C86.6179 32.8857 79.4767 38.1363 71.8452 38.1363C70.2134 38.1363 68.8906 36.8135 68.8906 35.1818C68.8906 33.55 70.2134 32.2272 71.8452 32.2272C77.2677 32.2272 80.7088 28.6592 80.7088 25.3333Z" fill="white"/>
<path opacity="0.5" d="M15.7092 25.3333C15.7092 22.0074 19.1503 18.4394 24.5728 18.4394C26.2045 18.4394 27.5273 17.1166 27.5273 15.4848C27.5273 13.8531 26.2045 12.5303 24.5728 12.5303C16.9413 12.5303 9.80007 17.7809 9.80007 25.3333C9.80007 32.8857 16.9413 38.1363 24.5728 38.1363C26.2045 38.1363 27.5273 36.8135 27.5273 35.1818C27.5273 33.55 26.2045 32.2272 24.5728 32.2272C19.1503 32.2272 15.7092 28.6592 15.7092 25.3333Z" fill="white"/>
<path d="M68.8938 66.697C68.8938 63.6409 67.0339 60.5136 63.2848 58.0142C59.5564 55.5288 54.2367 53.894 48.212 53.894C42.1873 53.894 36.8676 55.5288 33.1392 58.0142C29.3901 60.5136 27.5302 63.6409 27.5302 66.697C27.5302 69.7531 29.3901 72.8804 33.1392 75.3798C36.8676 77.8652 42.1873 79.5 48.212 79.5C54.2367 79.5 59.5564 77.8652 63.2848 75.3798C67.0339 72.8804 68.8938 69.7531 68.8938 66.697ZM74.8029 66.697C74.8029 72.3435 71.3681 77.0926 66.5625 80.2964C61.7364 83.5136 55.2406 85.4091 48.212 85.4091C41.1834 85.4091 34.6877 83.5136 29.8615 80.2964C25.0559 77.0926 21.6211 72.3435 21.6211 66.697C21.6211 61.0504 25.0559 56.3013 29.8615 53.0976C34.6877 49.8804 41.1834 47.9849 48.212 47.9849C55.2406 47.9849 61.7364 49.8804 66.5625 53.0976C71.3681 56.3013 74.8029 61.0504 74.8029 66.697Z" fill="white"/>
<path opacity="0.5" d="M88.5877 64.7273C88.5877 63.6389 88.0012 62.3216 86.3526 60.9726C84.7062 59.6255 82.2104 58.4486 79.0893 57.7641C77.4965 57.4138 76.4894 55.8373 76.8388 54.2441C77.1891 52.6513 78.7656 51.6442 80.3588 51.9935C84.1471 52.8246 87.5612 54.3246 90.0957 56.3984C92.6286 58.471 94.4968 61.3207 94.4968 64.7273C94.4968 68.134 92.6286 70.9837 90.0957 73.0562C87.5612 75.1301 84.1471 76.6301 80.3588 77.4611C78.7656 77.8105 77.1891 76.8033 76.8388 75.2106C76.4894 73.6174 77.4965 72.0409 79.0893 71.6905C82.2104 71.0061 84.7062 69.8291 86.3526 68.4821C88.0012 67.133 88.5877 65.8158 88.5877 64.7273Z" fill="white"/>
<path opacity="0.5" d="M7.83027 64.7273C7.83027 63.6389 8.4168 62.3216 10.0654 60.9726C11.7118 59.6255 14.2075 58.4486 17.3287 57.7641C18.9214 57.4138 19.9286 55.8373 19.5792 54.2441C19.2288 52.6513 17.6524 51.6442 16.0591 51.9935C12.2708 52.8246 8.85679 54.3246 6.32222 56.3984C3.78941 58.471 1.92118 61.3207 1.92118 64.7273C1.92118 68.134 3.78941 70.9837 6.32222 73.0562C8.85679 75.1301 12.2708 76.6301 16.0591 77.4611C17.6524 77.8105 19.2288 76.8033 19.5792 75.2106C19.9286 73.6174 18.9214 72.0409 17.3287 71.6905C14.2075 71.0061 11.7118 69.8291 10.0654 68.4821C8.4168 67.133 7.83027 65.8158 7.83027 64.7273Z" fill="white"/>
</svg>
