<svg width="95" height="95" viewBox="0 0 95 95" fill="none" xmlns="http://www.w3.org/2000/svg">
<path d="M83.7178 47.2745C83.7178 37.9057 83.7119 31.1761 83.0234 26.0548C82.3463 21.0184 81.0577 17.9816 78.8135 15.7374C76.5693 13.4934 73.5331 12.2055 68.4971 11.5284C63.3757 10.8399 56.6456 10.8341 47.2764 10.8341C37.9075 10.8341 31.1779 10.8399 26.0566 11.5284C21.0203 12.2056 17.9835 13.4932 15.7393 15.7374C13.4951 17.9816 12.2074 21.0184 11.5303 26.0548C10.8418 31.1761 10.8359 37.9056 10.8359 47.2745C10.8359 56.6438 10.8417 63.3739 11.5303 68.4952C12.2074 73.5313 13.4953 76.5675 15.7393 78.8116C17.9835 81.0559 21.0203 82.3445 26.0566 83.0216C31.1779 83.7101 37.9075 83.7159 47.2764 83.7159C56.6456 83.7159 63.3757 83.7102 68.4971 83.0216C73.5334 82.3445 76.5693 81.0558 78.8135 78.8116C81.0577 76.5674 82.3463 73.5316 83.0234 68.4952C83.712 63.3739 83.7178 56.6438 83.7178 47.2745ZM89.627 47.2745C89.627 56.4766 89.6337 63.6757 88.8799 69.2823C88.1147 74.974 86.5174 79.4652 82.9922 82.9904C79.467 86.5155 74.9758 88.1128 69.2842 88.8781C63.6775 89.6318 56.4784 89.6251 47.2764 89.6251C38.0744 89.6251 30.8752 89.6318 25.2686 88.8781C19.5771 88.1128 15.0856 86.5154 11.5605 82.9904C8.0356 79.4652 6.43903 74.9738 5.67383 69.2823C4.92006 63.6757 4.92578 56.4766 4.92578 47.2745C4.92578 38.0725 4.92004 30.8733 5.67383 25.2667C6.43908 19.5753 8.03547 15.0838 11.5605 11.5587C15.0856 8.03364 19.5771 6.43725 25.2686 5.672C30.8752 4.91821 38.0744 4.92395 47.2764 4.92395C56.4784 4.92395 63.6775 4.91822 69.2842 5.672C74.9757 6.4372 79.4671 8.03377 82.9922 11.5587C86.5173 15.0838 88.1146 19.5753 88.8799 25.2667C89.6337 30.8733 89.627 38.0725 89.627 47.2745Z" fill="white"/>
<path opacity="0.5" d="M67.958 31.5164C67.9579 28.7968 65.7528 26.5925 63.0332 26.5925C60.3137 26.5927 58.1095 28.7968 58.1094 31.5164C58.1094 34.236 60.3136 36.441 63.0332 36.4412C65.7529 36.4412 67.958 34.2361 67.958 31.5164ZM73.8672 31.5164C73.8672 37.4997 69.0166 42.3503 63.0332 42.3503C57.05 42.3502 52.1992 37.4996 52.1992 31.5164C52.1994 25.5332 57.05 20.6825 63.0332 20.6824C69.0165 20.6824 73.867 25.5331 73.8672 31.5164Z" fill="white"/>
<path opacity="0.5" d="M12.8354 40.9839C17.596 36.8185 24.7706 37.0571 29.2436 41.5298L46.144 58.4302C47.8361 60.122 50.4998 60.3529 52.4575 58.9771L53.6323 58.1509C59.267 54.191 66.8901 54.6502 72.0092 59.2574L84.7094 70.6861C85.9223 71.7777 86.0198 73.646 84.9282 74.8589C83.8366 76.0718 81.9692 76.1701 80.7563 75.0787L68.0561 63.6499V63.649C64.9846 60.885 60.4105 60.61 57.0298 62.9859L55.8549 63.8111C51.5476 66.8382 45.688 66.3306 41.9653 62.608L25.0659 45.7085C22.7927 43.4354 19.1454 43.3143 16.726 45.4312L9.82565 51.4693C8.59759 52.5434 6.73115 52.4188 5.65671 51.191C4.58215 49.9629 4.70698 48.0966 5.93503 47.022L12.8354 40.9839Z" fill="white"/>
</svg>
