<svg width="95" height="95" viewBox="0 0 95 95" fill="none" xmlns="http://www.w3.org/2000/svg">
<path d="M83.7139 47.2747C83.7137 27.1489 67.3982 10.8342 47.2725 10.8342C27.1468 10.8344 10.8322 27.149 10.832 47.2747C10.832 67.4004 27.1467 83.7159 47.2725 83.7161C67.3983 83.7161 83.7139 67.4005 83.7139 47.2747ZM89.623 47.2747C89.623 70.6642 70.662 89.6252 47.2725 89.6252C23.8831 89.6251 4.92188 70.6641 4.92188 47.2747C4.92205 23.8854 23.8832 4.92425 47.2725 4.92407C70.6619 4.92407 89.6229 23.8853 89.623 47.2747Z" fill="white"/>
<path opacity="0.5" d="M44.3193 59.0938V50.2295H35.4551C33.8234 50.2295 32.5003 48.907 32.5 47.2754C32.5 45.6436 33.8232 44.3203 35.4551 44.3203H44.3193V35.4561C44.3193 33.8244 45.6418 32.5012 47.2734 32.501C48.9053 32.501 50.2285 33.8242 50.2285 35.4561V44.3203H59.0928C60.7244 44.3204 62.0466 45.6429 62.0469 47.2744C62.0469 48.9062 60.7245 50.2294 59.0928 50.2295H50.2285V59.0938C50.2284 60.7255 48.9052 62.0479 47.2734 62.0479C45.6419 62.0476 44.3194 60.7254 44.3193 59.0938Z" fill="white"/>
</svg>
