<svg width="95" height="95" viewBox="0 0 95 95" fill="none" xmlns="http://www.w3.org/2000/svg">
<path opacity="0.4" d="M4.92578 47.0007C4.92582 35.292 9.68156 24.687 17.3595 17.0243C18.5142 15.8729 20.3849 15.8746 21.5374 17.0282C22.6901 18.1832 22.6885 20.0573 21.5336 21.21C14.9214 27.8094 10.8349 36.9247 10.8349 47.0007C10.8349 57.1948 15.0185 66.4053 21.7682 73.0222C22.9334 74.1645 22.9489 76.0349 21.8067 77.2001C20.6644 78.3654 18.794 78.3847 17.6288 77.2424C9.7928 69.56 4.92578 58.846 4.92578 47.0007ZM83.7137 47.0007C83.7136 37.0683 79.7421 28.0704 73.2958 21.4946C72.154 20.3298 72.1741 18.4591 73.3381 17.3167C74.5029 16.1748 76.3736 16.1912 77.516 17.3552C85.0013 24.9908 89.6227 35.4599 89.6228 47.0007C89.6228 58.6784 84.8928 69.2575 77.2506 76.9154C76.0981 78.0702 74.2277 78.0713 73.0727 76.9193C71.918 75.7669 71.9131 73.8964 73.065 72.7414C79.6472 66.146 83.7137 57.0508 83.7137 47.0007Z" fill="white"/>
<path opacity="0.7" d="M20.6836 46.9316C20.6836 39.9224 23.7223 33.6108 28.5585 29.085C29.75 27.9703 31.6216 28.0322 32.7364 29.2235C33.8512 30.4149 33.7891 32.2865 32.598 33.4014C28.8598 36.8996 26.5927 41.6843 26.5927 46.9316C26.5929 52.2395 28.9122 57.0766 32.7288 60.5848C33.9291 61.6891 34.0095 63.5578 32.9057 64.7589C31.8014 65.9602 29.9291 66.0363 28.7278 64.932C23.7939 60.3958 20.6838 54.0219 20.6836 46.9316ZM67.9563 46.9316C67.9563 41.7591 65.7552 37.0357 62.1126 33.5515C60.9334 32.4236 60.8924 30.5527 62.0203 29.3736C63.1483 28.1953 65.0193 28.1536 66.1982 29.2812C70.914 33.7923 73.8654 40.0237 73.8654 46.9316C73.8652 53.9216 70.8426 60.2166 66.0289 64.7396C64.8397 65.8569 62.9683 65.798 61.851 64.6088C60.7346 63.4198 60.7934 61.5519 61.9818 60.4348C65.7023 56.9392 67.9561 52.1649 67.9563 46.9316Z" fill="white"/>
<path d="M52.1951 47C52.1951 44.2804 49.9904 42.0757 47.2708 42.0757C44.5512 42.0757 42.3466 44.2804 42.3466 47C42.3466 49.7195 44.5512 51.9242 47.2708 51.9242C49.9904 51.9242 52.1951 49.7195 52.1951 47ZM58.1042 47C58.1042 52.983 53.2539 57.8333 47.2708 57.8333C41.2877 57.8333 36.4375 52.983 36.4375 47C36.4375 41.0169 41.2877 36.1666 47.2708 36.1666C53.2539 36.1666 58.1042 41.0169 58.1042 47Z" fill="white"/>
</svg>
