<svg width="95" height="95" viewBox="0 0 95 95" fill="none" xmlns="http://www.w3.org/2000/svg">
<path d="M83.7137 46.9999C83.7137 26.8749 67.3992 10.5605 47.2743 10.5605C27.1493 10.5605 10.8349 26.8749 10.8349 46.9999C10.8349 67.1248 27.1493 83.4393 47.2743 83.4393C67.3992 83.4393 83.7137 67.1248 83.7137 46.9999ZM89.6228 46.9999C89.6228 70.3883 70.6627 89.3483 47.2743 89.3483C23.8858 89.3483 4.92578 70.3883 4.92578 46.9999C4.92578 23.6114 23.8858 4.65137 47.2743 4.65137C70.6627 4.65137 89.6228 23.6114 89.6228 46.9999Z" fill="white"/>
<path opacity="0.5" d="M47.2705 20.4092C48.9021 20.4092 50.2253 21.7317 50.2256 23.3633V24.6133C56.649 25.7629 62.0457 30.5865 62.0459 37.1514C62.0459 38.7831 60.7226 40.1064 59.0908 40.1064C57.4591 40.1064 56.1367 38.7831 56.1367 37.1514C56.1366 34.4785 53.913 31.6514 50.2256 30.6436V44.3105C56.6491 45.4602 62.0459 50.2836 62.0459 56.8486C62.0459 63.4136 56.649 68.2361 50.2256 69.3857V70.6367C50.2254 72.2683 48.9022 73.5908 47.2705 73.5908C45.639 73.5906 44.3165 72.2682 44.3164 70.6367V69.3857C37.8945 68.235 32.5 63.4124 32.5 56.8486C32.5 55.217 33.8226 53.8948 35.4541 53.8945C37.0859 53.8945 38.4092 55.2169 38.4092 56.8486C38.4092 59.5208 40.631 62.3467 44.3164 63.3555V49.6885C37.8945 48.5377 32.5 43.7152 32.5 37.1514C32.5002 30.5876 37.8945 25.764 44.3164 24.6133V23.3633C44.3166 21.7319 45.6391 20.4094 47.2705 20.4092ZM50.2256 63.3564C53.9131 62.3485 56.1367 59.5216 56.1367 56.8486C56.1367 54.1756 53.9132 51.3477 50.2256 50.3398V63.3564ZM44.3164 30.6445C40.6311 31.6532 38.4093 34.4793 38.4092 37.1514C38.4092 39.8235 40.631 42.6495 44.3164 43.6582V30.6445Z" fill="white"/>
</svg>
