<svg width="95" height="95" viewBox="0 0 95 95" fill="none" xmlns="http://www.w3.org/2000/svg">
<path d="M41.8097 5.30588C46.2926 5.10815 51.98 5.62316 59.2499 6.27593C66.5198 6.9287 72.2077 7.43571 76.5837 8.42894C81.0259 9.43727 84.4608 11.0176 86.9957 14.0526C89.5305 17.0876 90.4731 20.7493 90.6739 25.3C90.8716 29.7829 90.3566 35.4703 89.7038 42.7402C89.051 50.0103 88.5452 55.699 87.5519 60.0751C86.5436 64.517 84.9631 67.9512 81.9282 70.486C79.8296 72.2388 77.4315 73.2301 74.6469 73.7416C74.9232 72.4504 75.098 71.0734 75.1965 69.6029C75.2143 69.3374 75.229 69.0676 75.2422 68.7936C76.7217 68.3664 77.9013 67.743 78.9236 66.8893C79.7499 66.1991 80.4465 65.3804 81.0451 64.3637C82.0626 62.3181 82.4968 61.1527 82.9808 59.0377C83.8881 55.0404 84.3703 49.7231 85.035 42.3209C85.6996 34.9193 86.1726 29.6023 85.992 25.5075C85.8143 21.4804 85.0118 18.9884 83.398 17.0562C81.7842 15.1244 79.4766 13.8921 75.5463 13C71.5491 12.0927 66.2325 11.6105 58.8306 10.9459C51.4287 10.2812 46.111 9.80822 42.016 9.98884C37.9891 10.1665 35.4981 10.9691 33.5659 12.5829C31.6339 14.1967 30.4008 16.5039 29.5086 20.4345C29.474 20.5868 29.4409 20.7412 29.4076 20.8973C27.6589 21.049 26.0357 21.213 24.5312 21.41C24.6581 20.7103 24.7928 20.0394 24.9386 19.3971C25.9469 14.9549 27.5262 11.519 30.5612 8.98403C33.5963 6.4493 37.2589 5.50668 41.8097 5.30588Z" fill="white"/>
<path opacity="0.5" d="M69.8782 52.2395C69.3765 44.729 69.0098 39.3338 68.1835 35.2653C67.371 31.2649 66.1763 28.901 64.2572 27.2224C62.3382 25.5437 59.8364 24.674 55.7635 24.4008C51.6213 24.1231 46.2253 24.4773 38.7147 24.9791C31.2042 25.4808 25.809 25.8475 21.7405 26.6738C17.7401 27.4863 15.3763 28.6811 13.6976 30.6001C12.0189 32.5191 11.1492 35.0209 10.876 39.0938C10.5983 43.236 10.9525 48.632 11.4543 56.1426C11.9561 63.6531 12.3228 69.0483 13.149 73.1168C13.9615 77.1172 15.1563 79.481 17.0753 81.1597C18.9943 82.8384 21.4961 83.7081 25.569 83.9813C29.7113 84.259 35.1073 83.9048 42.6178 83.403C50.1284 82.9012 55.5235 82.5345 59.592 81.7083C63.5924 80.8958 65.9563 79.701 67.6349 77.782C69.3136 75.863 70.1833 73.3612 70.4565 69.2883C70.7342 65.146 70.38 59.7501 69.8782 52.2395ZM74.6153 51.923C75.1081 59.299 75.4993 65.0691 75.1955 69.6037C74.8869 74.2072 73.845 77.8929 71.2079 80.9075C68.5709 83.9222 65.0565 85.445 60.535 86.3633C56.0811 87.2676 50.3102 87.6473 42.9343 88.1401C35.5583 88.6328 29.7882 89.0241 25.2536 88.7203C20.6501 88.4117 16.9644 87.3698 13.9498 84.7327C10.9351 82.0956 9.41226 78.5813 8.49403 74.0597C7.5897 69.6059 7.20999 63.835 6.71723 56.4591C6.22447 49.0831 5.83317 43.313 6.13702 38.7784C6.44563 34.1749 7.48751 30.4892 10.1246 27.4746C12.7617 24.4599 16.276 22.937 20.7976 22.0188C25.2514 21.1145 31.0223 20.7348 38.3983 20.242C45.7742 19.7492 51.5443 19.358 56.0789 19.6618C60.6824 19.9704 64.3681 21.0123 67.3827 23.6494C70.3974 26.2864 71.9203 29.8008 72.8385 34.3223C73.7428 38.7762 74.1225 44.5471 74.6153 51.923Z" fill="white"/>
<path d="M58.1301 40.1057C58.4789 40.0824 58.7806 40.3463 58.8039 40.6952L60.4415 65.2079C60.4648 65.5568 60.2009 65.8584 59.8521 65.8818L57.4587 66.0416C57.14 66.0629 56.8644 65.8219 56.8432 65.5032V65.5032C56.8055 64.9401 55.9862 64.7094 55.5657 65.0859C55.253 65.3659 54.9119 65.6099 54.5426 65.8177C53.6714 66.3179 52.6856 66.6048 51.585 66.6783C50.0441 66.7812 48.627 66.4805 47.3337 65.7759C46.0604 65.0701 45.0256 64.0226 44.2293 62.6335C43.4315 61.2213 42.9699 59.5773 42.8445 57.7014C42.7192 55.8255 42.9588 54.1462 43.5633 52.6636C44.1677 51.1809 45.054 50.0051 46.2221 49.1362C47.4102 48.2659 48.7747 47.7793 50.3155 47.6763C51.3761 47.6055 52.3606 47.7491 53.2689 48.1071C53.598 48.2368 53.9118 48.395 54.2104 48.5817C54.7272 48.9049 55.5587 48.5339 55.5181 47.9257L55.0518 40.9458C55.0285 40.597 55.2924 40.2953 55.6412 40.272L58.1301 40.1057ZM51.7869 62.9312C52.6874 62.871 53.4824 62.5853 54.1718 62.074C54.8598 61.5395 55.3844 60.8182 55.7459 59.9101C56.1073 59.002 56.2494 57.969 56.172 56.811C56.0946 55.6531 55.8165 54.6481 55.3374 53.7961C54.8584 52.9442 54.2432 52.3107 53.4919 51.8956C52.739 51.4574 51.9123 51.2684 51.0118 51.3285C50.1113 51.3887 49.3171 51.686 48.6291 52.2205C47.9397 52.7318 47.4142 53.4415 47.0528 54.3496C46.6913 55.2577 46.5493 56.2908 46.6267 57.4487C46.704 58.6067 46.9822 59.6116 47.4612 60.4636C47.9403 61.3156 48.5562 61.9606 49.3091 62.3989C50.0605 62.8139 50.8864 62.9914 51.7869 62.9312Z" fill="white"/>
<path d="M30.804 43.0482C32.685 42.9226 34.3546 43.2414 35.8126 44.0047C37.2706 44.768 38.4363 45.9695 39.3097 47.6093C40.2015 49.2247 40.7271 51.225 40.8865 53.6104L41.7447 66.4573C41.768 66.8062 41.5042 67.1078 41.1553 67.1311L38.5164 67.3074C38.1675 67.3307 37.8659 67.0669 37.8426 66.718L37.5092 61.7283C37.4859 61.3795 37.1842 61.1156 36.8354 61.1389L27.1725 61.7844C26.8237 61.8077 26.5598 62.1094 26.5831 62.4582L26.9164 67.448C26.9397 67.7968 26.6759 68.0985 26.327 68.1218L23.7481 68.2941C23.3993 68.3174 23.0976 68.0535 23.0743 67.7046L22.216 54.8577C22.0567 52.4723 22.3015 50.4205 22.9505 48.7022C23.618 46.9595 24.6235 45.6129 25.9671 44.6624C27.3106 43.712 28.9229 43.1739 30.804 43.0482ZM36.5824 57.3524C36.9313 57.3291 37.1952 57.0274 37.1719 56.6786L36.9565 53.4542C36.8064 51.2078 36.2132 49.5493 35.1768 48.4786C34.1389 47.3849 32.7595 46.8955 31.0385 47.0104C29.3176 47.1254 28.0155 47.7939 27.1323 49.0161C26.2476 50.215 25.8803 51.9377 26.0303 54.1841L26.2457 57.4085C26.269 57.7573 26.5707 58.0212 26.9195 57.9979L36.5824 57.3524Z" fill="white"/>
</svg>
