<svg width="95" height="95" viewBox="0 0 95 95" fill="none" xmlns="http://www.w3.org/2000/svg">
<path opacity="0.5" d="M43.5455 3.34768C48.1255 3.45526 53.8826 4.37271 61.2424 5.53831C68.6026 6.70398 74.3623 7.61025 78.7515 8.92322C83.2075 10.2563 86.5978 12.105 88.9711 15.3712C91.3444 18.6372 92.0543 22.4326 91.9454 27.0818C91.838 31.6614 90.9203 37.4184 89.7548 44.7775C88.5893 52.1365 87.6839 57.8948 86.371 62.2833C85.0379 66.7387 83.1895 70.1288 79.9231 72.5017C77.4824 74.2748 74.7461 75.1178 71.5791 75.3862C71.8283 74.9028 72.0598 74.4081 72.2695 73.9019C72.736 72.7752 73.0478 71.5947 73.2636 70.3088C74.7841 69.9748 76.0183 69.4233 77.1103 68.63C77.9995 67.9839 78.7645 67.198 79.4442 66.2039C80.4028 64.6762 80.8982 63.6678 81.6383 61.3734C81.6858 61.2225 81.736 61.07 81.7827 60.9139C82.9822 56.9049 83.8409 51.5217 85.0277 44.028C86.2145 36.5346 87.0613 31.1503 87.1592 26.967C87.2554 22.8537 86.6101 20.263 85.0994 18.1839C83.5887 16.1049 81.3241 14.6899 77.3821 13.5104C73.3726 12.3108 67.9886 11.4523 60.494 10.2654C52.9995 9.07843 47.6145 8.23196 43.4307 8.13386C39.3168 8.03754 36.7258 8.68318 34.6465 10.1937C32.5674 11.7042 31.1524 13.9682 29.9729 17.9098C29.5353 19.3726 29.1433 21.0183 28.7639 22.8826C27.0003 22.887 25.3746 22.8996 23.873 22.9337C24.3374 20.5405 24.8248 18.4155 25.3858 16.5404C26.7189 12.085 28.5673 8.69491 31.8337 6.32198C35.1001 3.94915 38.8958 3.23866 43.5455 3.34768Z" fill="white"/>
<path opacity="0.5" d="M41.6777 33.8438C45.2002 33.8437 48.0149 33.8405 50.2188 34.1367C52.4718 34.4397 54.3433 35.0837 55.8252 36.5654C57.307 38.0473 57.9519 39.9187 58.2549 42.1719C58.5511 44.3757 58.5469 47.1905 58.5469 50.7129C58.5469 54.2353 58.5511 57.05 58.2549 59.2539C57.9519 61.5072 57.307 63.3785 55.8252 64.8604C54.3434 66.3422 52.472 66.9871 50.2188 67.29C48.0149 67.5863 45.2001 67.582 41.6777 67.582C38.1554 67.582 35.3406 67.5863 33.1367 67.29C30.8835 66.9871 29.0121 66.3422 27.5303 64.8604C26.0485 63.3785 25.4045 61.5071 25.1016 59.2539C24.8053 57.05 24.8086 54.2354 24.8086 50.7129C24.8086 47.1904 24.8053 44.3757 25.1016 42.1719C25.4045 39.9188 26.0484 38.0473 27.5303 36.5654C29.0121 35.0836 30.8836 34.4397 33.1367 34.1367C35.3406 33.8405 38.1553 33.8437 41.6777 33.8438ZM32.7256 50.5225C32.0679 49.8648 31.0116 49.8299 30.3115 50.4424L28.2461 52.248C28.2516 55.0744 28.2872 57.1628 28.5068 58.7969C28.7585 60.6686 29.223 61.6936 29.96 62.4307C30.697 63.1677 31.7221 63.6321 33.5938 63.8838C35.5155 64.1421 38.058 64.1465 41.6777 64.1465C45.2975 64.1465 47.84 64.1421 49.7617 63.8838C51.6334 63.6321 52.6584 63.1677 53.3955 62.4307C53.6185 62.2076 53.811 61.9581 53.9824 61.6738L49.2803 57.4434C48.3005 56.5619 46.8418 56.4748 45.7637 57.2324L45.3115 57.5488C43.4238 58.8752 40.8551 58.6528 39.2236 57.0215L32.7256 50.5225ZM41.6777 37.2803C38.058 37.2803 35.5155 37.2837 33.5938 37.542C31.7221 37.7937 30.6969 38.2582 29.96 38.9951C29.223 39.7321 28.7586 40.7571 28.5068 42.6289C28.3279 43.9599 28.2737 45.5947 28.2559 47.6855C30.3136 46.0619 33.2809 46.2196 35.1543 48.0928L41.6543 54.5918C42.1053 55.0423 42.8155 55.1047 43.3369 54.7383L43.7871 54.4199C46.176 52.7411 49.4088 52.9364 51.5791 54.8896L54.9434 57.917C55.1053 56.1123 55.1113 53.8063 55.1113 50.7129C55.1113 47.0931 55.107 44.5506 54.8486 42.6289C54.5969 40.7573 54.1325 39.7321 53.3955 38.9951C52.6585 38.2582 51.6334 37.7937 49.7617 37.542C47.84 37.2836 45.2975 37.2803 41.6777 37.2803ZM47.7383 39.9043C50.3603 39.9045 52.487 42.0304 52.4873 44.6523C52.4872 47.2744 50.3604 49.4002 47.7383 49.4004C45.1162 49.4002 42.9904 47.2745 42.9902 44.6523C42.9906 42.0303 45.1163 39.9045 47.7383 39.9043ZM47.7383 43.3408C47.0139 43.341 46.4261 43.9281 46.4258 44.6523C46.4259 45.3769 47.014 45.9647 47.7383 45.9648C48.4626 45.9646 49.0497 45.3768 49.0498 44.6523C49.0495 43.9282 48.4627 43.3411 47.7383 43.3408Z" fill="white"/>
<path d="M72.6293 50.5771C72.6293 44.9484 72.6261 40.9062 72.3263 37.7533C72.0302 34.6384 71.4636 32.6551 70.4953 31.075C69.3007 29.1255 67.6609 27.4857 65.7114 26.291C64.1313 25.3228 62.148 24.7561 59.0332 24.46C55.8803 24.1602 51.8382 24.157 46.2095 24.157H35.9825C30.3538 24.157 26.3117 24.1602 23.1588 24.46C20.044 24.7561 18.0607 25.3228 16.4806 26.291C14.5311 27.4857 12.8913 29.1255 11.6967 31.075C10.7285 32.6551 10.1618 34.6384 9.86568 37.7533C9.56594 40.9062 9.56273 44.9484 9.56273 50.5771V53.9862C9.56273 57.9919 9.56436 60.8682 9.7192 63.138C9.87243 65.3839 10.1669 66.8494 10.6647 68.0518C12.1351 71.6019 14.958 74.4248 18.508 75.8953C20.2656 76.6229 22.509 76.8936 26.7875 76.9673C28.1891 76.9914 29.4153 77.0114 30.4296 77.1237C31.4913 77.2413 32.5311 77.4789 33.529 78.0592C34.5177 78.6345 35.2308 79.4034 35.8527 80.2565C36.4435 81.0671 37.0515 82.1 37.7436 83.2694L39.5913 86.3921C40.2484 87.5019 41.9436 87.502 42.6008 86.3921L44.4484 83.2694C45.1405 82.1 45.7486 81.0671 46.3393 80.2565C46.9612 79.4034 47.6743 78.6345 48.6631 78.0592C49.661 77.4788 50.7007 77.2413 51.7625 77.1237C52.7768 77.0114 54.0028 76.9914 55.4045 76.9673C59.6831 76.8936 61.9264 76.6229 63.684 75.8953C67.234 74.4248 70.0569 71.6019 71.5274 68.0518C72.0252 66.8494 72.3196 65.3839 72.4728 63.138C72.6277 60.8682 72.6293 57.9919 72.6293 53.9862V50.5771ZM77.7428 53.9862C77.7428 57.9222 77.7458 61.0033 77.5764 63.4876C77.4053 65.9941 77.0503 68.0802 76.2514 70.0094C74.2619 74.8124 70.4445 78.6299 65.6415 80.6194C62.8978 81.7556 59.7726 82.0071 55.4944 82.0808C53.9975 82.1066 53.0478 82.1273 52.3251 82.2074C51.6511 82.282 51.3897 82.3913 51.2365 82.4803C51.0749 82.5743 50.853 82.7449 50.4708 83.2694C50.0572 83.8368 49.5903 84.6212 48.8495 85.8727L47.0018 88.9955C44.3647 93.4509 37.8273 93.4509 35.1902 88.9955L33.3425 85.8727C32.6018 84.6212 32.1348 83.8368 31.7212 83.2694C31.339 82.7449 31.1172 82.5743 30.9556 82.4803C30.8023 82.3913 30.541 82.2821 29.8669 82.2074C29.1442 82.1273 28.1945 82.1066 26.6976 82.0808C22.4194 82.0071 19.2942 81.7556 16.5505 80.6194C11.7475 78.6299 7.93012 74.8124 5.94066 70.0094C5.14173 68.0802 4.78674 65.9941 4.61568 63.4876C4.44618 61.0033 4.44922 57.9222 4.44922 53.9862V50.5771C4.44922 45.047 4.44733 40.7185 4.77547 37.2672C5.10726 33.7788 5.79594 30.9232 7.33889 28.405C8.95516 25.7675 11.1731 23.5495 13.8107 21.9332C16.3288 20.3902 19.1844 19.7015 22.6727 19.3697C26.124 19.0416 30.4525 19.0435 35.9825 19.0435H46.2095C51.7396 19.0435 56.068 19.0416 59.5193 19.3697C63.0076 19.7015 65.8632 20.3902 68.3814 21.9332C71.0189 23.5495 73.2369 25.7675 74.8531 28.405C76.3961 30.9232 77.0848 33.7788 77.4165 37.2672C77.7447 40.7185 77.7428 45.047 77.7428 50.5771V53.9862Z" fill="white"/>
</svg>
