<svg width="95" height="95" viewBox="0 0 95 95" fill="none" xmlns="http://www.w3.org/2000/svg">
<path d="M79.7783 45.3049C79.7782 26.267 64.3446 10.8342 45.3066 10.8342C26.2688 10.8344 10.8361 26.2671 10.8359 45.3049C10.8359 64.3428 26.2688 79.7765 45.3066 79.7766C64.3446 79.7766 79.7783 64.3429 79.7783 45.3049ZM85.6875 45.3049C85.6875 67.6066 67.6083 85.6858 45.3066 85.6858C23.0051 85.6857 4.92578 67.6065 4.92578 45.3049C4.92592 23.0035 23.0052 4.92421 45.3066 4.92407C67.6082 4.92407 85.6874 23.0034 85.6875 45.3049Z" fill="white"/>
<path opacity="0.5" d="M70.7951 70.7934C71.949 69.6395 73.819 69.6395 74.9728 70.7934L88.7619 84.5815C89.9157 85.7354 89.9158 87.6063 88.7619 88.7602C87.608 89.914 85.7371 89.914 84.5832 88.7602L70.7951 74.9711C69.6412 73.8172 69.6412 71.9473 70.7951 70.7934Z" fill="white"/>
</svg>
