<svg width="95" height="95" viewBox="0 0 95 95" fill="none" xmlns="http://www.w3.org/2000/svg">
<path opacity="0.5" d="M82.7269 83.7122C84.3587 83.7122 85.6815 85.035 85.6815 86.6667C85.6815 88.2985 84.3587 89.6212 82.7269 89.6212H11.8178C10.1861 89.6212 8.86328 88.2985 8.86328 86.6667C8.86328 85.035 10.1861 83.7122 11.8178 83.7122H82.7269Z" fill="white"/>
<path d="M24.6209 43.3334C24.6209 41.3935 24.6131 40.2356 24.5016 39.4055C24.4505 39.0251 24.3908 38.8335 24.3555 38.7477C24.3474 38.728 24.3402 38.7129 24.3362 38.7054L24.3324 38.6977L24.3247 38.6938C24.3171 38.6899 24.302 38.6827 24.2824 38.6746C24.1966 38.6393 24.0049 38.5795 23.6245 38.5284C22.7945 38.4169 21.6366 38.4091 19.6967 38.4091C17.7567 38.4091 16.5989 38.4169 15.7688 38.5284C15.3884 38.5795 15.1968 38.6393 15.111 38.6746C15.0913 38.6827 15.0762 38.6899 15.0686 38.6938L15.0609 38.6977L15.0571 38.7054C15.0532 38.7129 15.046 38.728 15.0379 38.7477C15.0026 38.8335 14.9428 39.0251 14.8917 39.4055C14.7802 40.2356 14.7724 41.3935 14.7724 43.3334V66.9697C14.7724 68.9097 14.7802 70.0675 14.8917 70.8976C14.9428 71.278 15.0026 71.4696 15.0379 71.5554C15.046 71.5751 15.0532 71.5902 15.0571 71.5978L15.0609 71.6055L15.0686 71.6093C15.0762 71.6133 15.0913 71.6204 15.111 71.6285C15.1968 71.6638 15.3884 71.7236 15.7688 71.7747C16.5989 71.8862 17.7567 71.894 19.6967 71.894C21.6366 71.894 22.7945 71.8862 23.6245 71.7747C24.0049 71.7236 24.1966 71.6638 24.2824 71.6285C24.302 71.6204 24.3171 71.6133 24.3247 71.6093L24.3324 71.6055L24.3362 71.5978C24.3402 71.5902 24.3474 71.5751 24.3555 71.5554C24.3908 71.4696 24.4505 71.278 24.5016 70.8976C24.6131 70.0675 24.6209 68.9097 24.6209 66.9697V43.3334ZM30.53 66.9697C30.53 68.7433 30.5376 70.3709 30.3607 71.6862C30.1724 73.0866 29.7276 74.566 28.5103 75.7834C27.2929 77.0007 25.8135 77.4455 24.4132 77.6338C23.0978 77.8107 21.4702 77.8031 19.6967 77.8031C17.9231 77.8031 16.2955 77.8107 14.9802 77.6338C13.5798 77.4455 12.1004 77.0007 10.883 75.7834C9.66569 74.566 9.22088 73.0866 9.0326 71.6862C8.85575 70.3709 8.86333 68.7433 8.86333 66.9697V43.3334C8.86333 41.5599 8.85575 39.9323 9.0326 38.6169C9.22088 37.2165 9.66569 35.7371 10.883 34.5198C12.1004 33.3024 13.5798 32.8576 14.9802 32.6693C16.2955 32.4925 17.9231 32.5 19.6967 32.5C21.4702 32.5 23.0978 32.4925 24.4132 32.6693C25.8135 32.8576 27.2929 33.3024 28.5103 34.5198C29.7276 35.7371 30.1724 37.2165 30.3607 38.6169C30.5376 39.9323 30.53 41.5599 30.53 43.3334V66.9697Z" fill="white"/>
<path d="M52.1951 27.5758C52.1951 25.6359 52.1874 24.478 52.0759 23.648C52.0247 23.2676 51.965 23.0759 51.9297 22.9901C51.9216 22.9705 51.9144 22.9554 51.9104 22.9478L51.9066 22.9401C51.9052 22.9392 51.9025 22.9382 51.8989 22.9363C51.8913 22.9323 51.8762 22.9251 51.8566 22.917C51.7708 22.8817 51.5791 22.822 51.1987 22.7708C50.3687 22.6593 49.2108 22.6516 47.2709 22.6516C45.331 22.6516 44.1731 22.6593 43.343 22.7708C42.9626 22.822 42.771 22.8817 42.6852 22.917C42.6655 22.9251 42.6504 22.9323 42.6429 22.9363L42.6352 22.9401C42.6343 22.9415 42.6333 22.9442 42.6313 22.9478C42.6274 22.9554 42.6202 22.9705 42.6121 22.9901C42.5768 23.0759 42.517 23.2676 42.4659 23.648C42.3544 24.478 42.3466 25.6359 42.3466 27.5758V66.9698C42.3466 68.9097 42.3544 70.0675 42.4659 70.8976C42.517 71.278 42.5768 71.4697 42.6121 71.5555C42.6202 71.5751 42.6274 71.5902 42.6313 71.5978L42.6352 71.6055L42.6429 71.6093C42.6504 71.6133 42.6655 71.6205 42.6852 71.6286C42.771 71.6639 42.9626 71.7236 43.343 71.7747C44.1731 71.8862 45.331 71.894 47.2709 71.894C49.2108 71.894 50.3687 71.8862 51.1987 71.7747C51.5791 71.7236 51.7708 71.6639 51.8566 71.6286C51.8762 71.6205 51.8913 71.6133 51.8989 71.6093L51.9066 71.6055L51.9104 71.5978C51.9144 71.5902 51.9216 71.5751 51.9297 71.5555C51.965 71.4697 52.0247 71.278 52.0759 70.8976C52.1874 70.0675 52.1951 68.9097 52.1951 66.9698V27.5758ZM58.1042 66.9698C58.1042 68.7433 58.1118 70.3709 57.9349 71.6863C57.7467 73.0866 57.3019 74.566 56.0845 75.7834C54.8672 77.0007 53.3877 77.4455 51.9874 77.6338C50.672 77.8107 49.0444 77.8031 47.2709 77.8031C45.4974 77.8031 43.8698 77.8107 42.5544 77.6338C41.154 77.4455 39.6746 77.0007 38.4573 75.7834C37.2399 74.566 36.7951 73.0866 36.6068 71.6863C36.43 70.3709 36.4375 68.7433 36.4375 66.9698V27.5758C36.4375 25.8023 36.43 24.1747 36.6068 22.8593C36.7951 21.459 37.2399 19.9795 38.4573 18.7622C39.6746 17.5448 41.154 17.1 42.5544 16.9117C43.8698 16.7349 45.4974 16.7425 47.2709 16.7425C49.0444 16.7425 50.672 16.7349 51.9874 16.9117C53.3877 17.1 54.8672 17.5448 56.0845 18.7622C57.3019 19.9795 57.7467 21.459 57.9349 22.8593C58.1118 24.1747 58.1042 25.8023 58.1042 27.5758V66.9698Z" fill="white"/>
<path d="M79.7732 15.7577C79.7732 13.8178 79.7655 12.6599 79.654 11.8298C79.6028 11.4495 79.5431 11.2578 79.5078 11.172C79.4997 11.1523 79.4925 11.1372 79.4886 11.1297L79.4847 11.122C79.4833 11.1211 79.4807 11.1201 79.477 11.1181C79.4695 11.1142 79.4544 11.107 79.4347 11.0989C79.3489 11.0636 79.1572 11.0039 78.7769 10.9527C77.9468 10.8412 76.7889 10.8335 74.849 10.8335C72.9091 10.8335 71.7512 10.8412 70.9212 10.9527C70.5408 11.0039 70.3491 11.0636 70.2633 11.0989C70.2437 11.107 70.2286 11.1142 70.221 11.1181L70.2133 11.122C70.2124 11.1234 70.2114 11.126 70.2094 11.1297C70.2055 11.1372 70.1983 11.1523 70.1902 11.172C70.1549 11.2578 70.0952 11.4495 70.044 11.8298C69.9325 12.6599 69.9248 13.8178 69.9248 15.7577V66.9698C69.9248 68.9097 69.9325 70.0676 70.044 70.8977C70.0952 71.278 70.1549 71.4697 70.1902 71.5555C70.1983 71.5752 70.2055 71.5903 70.2094 71.5978L70.2133 71.6055L70.221 71.6094C70.2286 71.6133 70.2437 71.6205 70.2633 71.6286C70.3491 71.6639 70.5408 71.7237 70.9212 71.7748C71.7512 71.8863 72.9091 71.8941 74.849 71.8941C76.7889 71.8941 77.9468 71.8863 78.7769 71.7748C79.1572 71.7237 79.3489 71.6639 79.4347 71.6286C79.4544 71.6205 79.4695 71.6133 79.477 71.6094L79.4847 71.6055L79.4886 71.5978C79.4925 71.5903 79.4997 71.5752 79.5078 71.5555C79.5431 71.4697 79.6028 71.278 79.654 70.8977C79.7655 70.0676 79.7732 68.9097 79.7732 66.9698V15.7577ZM85.6823 66.9698C85.6823 68.7433 85.6899 70.3709 85.5131 71.6863C85.3248 73.0867 84.88 74.5661 83.6626 75.7834C82.4453 77.0008 80.9659 77.4456 79.5655 77.6339C78.2501 77.8107 76.6225 77.8031 74.849 77.8031C73.0755 77.8031 71.4479 77.8107 70.1325 77.6339C68.7321 77.4456 67.2527 77.0008 66.0354 75.7834C64.818 74.5661 64.3732 73.0867 64.1849 71.6863C64.0081 70.3709 64.0157 68.7433 64.0157 66.9698V15.7577C64.0157 13.9842 64.0081 12.3566 64.1849 11.0412C64.3732 9.64083 64.818 8.16142 66.0354 6.94407C67.2527 5.72672 68.7321 5.28191 70.1325 5.09363C71.4479 4.91679 73.0755 4.92436 74.849 4.92436C76.6225 4.92436 78.2501 4.91679 79.5655 5.09363C80.9659 5.28191 82.4453 5.72672 83.6626 6.94407C84.88 8.16142 85.3248 9.64083 85.5131 11.0412C85.6899 12.3566 85.6823 13.9842 85.6823 15.7577V66.9698Z" fill="white"/>
</svg>
