<svg width="95" height="95" viewBox="0 0 95 95" fill="none" xmlns="http://www.w3.org/2000/svg">
<path d="M83.7146 48.034C83.7146 45.649 82.7959 43.3015 80.3485 40.0936C77.8489 36.8176 74.0466 33.007 68.6918 27.6522L61.4824 20.4428C58.3996 17.36 56.2315 15.1943 54.35 13.6412C52.517 12.1284 51.125 11.3448 49.6758 10.929C48.2263 10.5133 46.6311 10.4406 44.2745 10.7521C41.8556 11.0718 38.8675 11.7566 34.6184 12.7372L29.7826 13.8567C26.1943 14.6847 23.7223 15.2594 21.8346 15.9071C20.0121 16.5326 18.981 17.1488 18.203 17.9269C17.425 18.7049 16.8088 19.736 16.1833 21.5585C15.5355 23.4461 14.9609 25.9182 14.1328 29.5065L13.0133 34.3423C12.0327 38.5914 11.3479 41.5795 11.0282 43.9984C10.7168 46.355 10.7895 47.9502 11.2052 49.3997C11.6209 50.8489 12.4045 52.2409 13.9173 54.0739C15.4704 55.9554 17.6361 58.1235 20.719 61.2063L27.9284 68.4157C33.2831 73.7705 37.0937 77.5728 40.3698 80.0723C43.5777 82.5198 45.9251 83.4385 48.3101 83.4385C50.6944 83.4381 53.0396 82.519 56.2466 80.0723C59.5229 77.5726 63.3363 73.7713 68.6918 68.4157C74.0474 63.0602 77.8487 59.2468 80.3485 55.9705C82.7951 52.7635 83.7143 50.4183 83.7146 48.034ZM89.6237 48.034C89.6233 52.2299 87.8941 55.8226 85.0457 59.5559C82.249 63.2215 78.1072 67.3562 72.8698 72.5936C67.6323 77.8311 63.4976 81.9729 59.8321 84.7696C56.0987 87.618 52.506 89.3472 48.3101 89.3476C44.1135 89.3476 40.5181 87.6184 36.7843 84.7696C33.1189 81.9729 28.9838 77.8308 23.7466 72.5936L16.541 65.3842C13.5362 62.3794 11.1328 59.9822 9.35858 57.8325C7.54478 55.6346 6.23995 53.5267 5.52305 51.027C4.80648 48.5276 4.79588 46.05 5.16912 43.2251C5.53432 40.4618 6.30252 37.1558 7.25808 33.015L8.37373 28.1754C9.17431 24.7063 9.82282 21.8843 10.5935 19.6388C11.3866 17.328 12.3864 15.3876 14.0251 13.7489C15.6637 12.1103 17.6041 11.1105 19.9149 10.3174C22.1604 9.5467 24.9824 8.89818 28.4516 8.0976L33.2912 6.98196C37.4319 6.0264 40.7379 5.2582 43.5013 4.893C46.3261 4.51976 48.8037 4.53036 51.3031 5.24693C53.8028 5.96383 55.9107 7.26866 58.1086 9.08245C60.2583 10.8567 62.6556 13.2601 65.6604 16.2649L72.8698 23.4705C78.1069 28.7076 82.249 32.8427 85.0457 36.5082C87.8945 40.2419 89.6237 43.8374 89.6237 48.034Z" fill="white"/>
<path opacity="0.5" d="M52.2551 61.6128C52.5835 60.0144 54.1469 58.9856 55.7452 59.3141C56.4431 59.4573 57.5676 59.2273 58.5335 58.2614C60.0602 56.7347 59.6586 55.2081 59.2299 54.7794C58.8005 54.3508 57.2741 53.9497 55.7479 55.4758C52.6593 58.5644 47.3266 59.5895 43.9092 56.1722C41.2593 53.5218 41.2915 49.725 42.8755 46.711C42.076 45.5593 42.1865 43.967 43.2129 42.9407C44.2333 41.9203 45.8113 41.808 46.9614 42.5925C48.3013 41.8797 49.7731 41.4987 51.2404 41.5126C52.8712 41.529 54.1828 42.863 54.1674 44.494C54.1521 46.1257 52.8122 47.4364 51.1806 47.421C50.484 47.4151 49.5687 47.7272 48.784 48.5119C47.2579 50.038 47.659 51.5645 48.0876 51.9938C48.5163 52.4226 50.0429 52.8241 51.5696 51.2974C54.6581 48.2089 59.9909 47.1842 63.4082 50.601C66.0598 53.2526 66.0281 57.0528 64.442 60.0676C65.2395 61.2191 65.1302 62.807 64.1046 63.8325C63.0837 64.8534 61.5036 64.9692 60.3534 64.1834C58.5536 65.1401 56.5086 65.5011 54.5564 65.1002C52.9581 64.7717 51.9266 63.2111 52.2551 61.6128Z" fill="white"/>
<path opacity="0.5" d="M37.3925 31.2229C35.4694 29.2998 32.3516 29.2998 30.4285 31.2229C28.5055 33.1459 28.5055 36.2638 30.4285 38.1868C32.3516 40.1098 35.4694 40.1098 37.3925 38.1868C39.3155 36.2638 39.3155 33.1459 37.3925 31.2229ZM41.5708 27.0445C45.8015 31.2752 45.8015 38.1345 41.5708 42.3652C37.3401 46.5958 30.4808 46.5958 26.2502 42.3652C22.0195 38.1345 22.0195 31.2752 26.2502 27.0445C30.4808 22.8138 37.3401 22.8138 41.5708 27.0445Z" fill="white"/>
</svg>
