<svg width="95" height="95" viewBox="0 0 95 95" fill="none" xmlns="http://www.w3.org/2000/svg">
<circle opacity="0.5" cx="47.2758" cy="47.2748" r="11.8188" stroke="white" stroke-width="5.90938"/>
<path d="M54.223 8.47892C52.7751 7.87915 50.9395 7.87915 47.2682 7.87915C43.597 7.87915 41.7614 7.87915 40.3134 8.47892C38.3828 9.2786 36.8489 10.8125 36.0492 12.7431C35.6842 13.6244 35.5413 14.6493 35.4854 16.1444C35.4033 18.3414 34.2765 20.3751 32.3725 21.4744C30.4685 22.5737 28.1439 22.5326 26.2001 21.5052C24.8774 20.8061 23.9184 20.4174 22.9726 20.2928C20.9008 20.0201 18.8055 20.5815 17.1476 21.8536C15.9042 22.8077 14.9864 24.3974 13.1508 27.5768C11.3152 30.7562 10.3974 32.3459 10.1928 33.8997C9.92007 35.9715 10.4815 38.0668 11.7536 39.7247C12.3343 40.4814 13.1503 41.1175 14.4168 41.9133C16.2787 43.0832 17.4767 45.0761 17.4766 47.2751C17.4765 49.4738 16.2785 51.4664 14.4168 52.6362C13.1501 53.4321 12.3339 54.0682 11.7532 54.825C10.4811 56.4829 9.91968 58.5782 10.1924 60.65C10.397 62.2038 11.3148 63.7935 13.1504 66.9729C14.986 70.1523 15.9039 71.742 17.1472 72.6961C18.8051 73.9682 20.9004 74.5296 22.9722 74.2569C23.9179 74.1323 24.8769 73.7436 26.1995 73.0446C28.1434 72.0172 30.4681 71.9761 32.3723 73.0755C34.2765 74.1748 35.4032 76.2086 35.4854 78.4058C35.5413 79.9007 35.6842 80.9256 36.0492 81.8069C36.8489 83.7375 38.3828 85.2714 40.3134 86.0711C41.7614 86.6708 43.597 86.6708 47.2682 86.6708C50.9395 86.6708 52.7751 86.6708 54.223 86.0711C56.1536 85.2714 57.6875 83.7375 58.4872 81.8069C58.8523 80.9255 58.9951 79.9006 59.051 78.4055C59.1332 76.2085 60.2598 74.1748 62.1637 73.0755C64.0679 71.9759 66.3927 72.017 68.3367 73.0444C69.6592 73.7434 70.6182 74.1321 71.5638 74.2566C73.6356 74.5293 75.731 73.9679 77.3888 72.6958C78.6322 71.7417 79.55 70.152 81.3856 66.9726C83.2212 63.7932 84.1391 62.2036 84.3436 60.6497C84.6164 58.5779 84.0549 56.4826 82.7828 54.8247C82.2021 54.068 81.386 53.4318 80.1194 52.636C78.2576 51.4662 77.0597 49.4734 77.0599 47.2746C77.06 45.0761 78.2578 43.0836 80.1194 41.914C81.3863 41.118 82.2025 40.4818 82.7832 39.725C84.0553 38.0671 84.6168 35.9718 84.344 33.9C84.1394 32.3461 83.2216 30.7564 81.386 27.5771C79.5504 24.3977 78.6326 22.808 77.3892 21.8539C75.7313 20.5818 73.636 20.0204 71.5642 20.2931C70.6185 20.4176 69.6595 20.8063 68.3369 21.5054C66.393 22.5328 64.0683 22.5739 62.1641 21.4745C60.26 20.3751 59.1332 18.3413 59.051 16.1442C58.9951 14.6492 58.8522 13.6244 58.4872 12.7431C57.6875 10.8125 56.1536 9.2786 54.223 8.47892Z" stroke="white" stroke-width="5.90938"/>
</svg>
