<svg width="95" height="95" viewBox="0 0 95 95" fill="none" xmlns="http://www.w3.org/2000/svg">
<path d="M46.665 19.1955C46.665 17.0865 46.657 15.1682 46.8662 13.7238C47.0659 12.3453 47.6187 10.2251 49.7832 9.25799C51.9407 8.29427 53.8895 9.28734 55.0537 10.0519C56.2757 10.8545 57.7105 12.1326 59.2959 13.5344L77.7178 29.8224C81.2887 32.9797 84.2048 35.5495 86.1895 37.8693C88.2283 40.2525 89.627 42.7562 89.627 45.8273C89.6269 48.8983 88.2282 51.4021 86.1895 53.7853C84.2048 56.1051 81.2887 58.675 77.7178 61.8322L59.2959 78.1203C57.7104 79.5221 56.2758 80.8001 55.0537 81.6027C53.8895 82.3673 51.9407 83.3604 49.7832 82.3967C47.6185 81.4296 47.0659 79.3084 46.8662 77.9299C46.657 76.4855 46.665 74.567 46.665 72.4582V64.6828C39.6838 65.0864 32.5814 66.9011 26.3867 69.9035C19.299 73.3388 13.5987 78.2285 10.4941 84.1105C9.8602 85.3115 8.48907 85.9251 7.1709 85.5988C5.85256 85.2722 4.92578 84.0888 4.92578 82.7306C4.92586 61.0492 11.3023 47.0137 20.3369 38.4152C28.3688 30.7711 38.1958 27.7186 46.665 27.1564V19.1955ZM52.5742 30.0109C52.5742 31.6427 51.251 32.966 49.6191 32.966C41.679 32.9661 32.0424 35.4317 24.4102 42.6955C18.0714 48.7283 12.8457 58.329 11.3008 73.2863C14.8324 69.7643 19.1366 66.851 23.8096 64.5861C31.6942 60.7646 40.8306 58.6887 49.6191 58.6887C51.2509 58.6887 52.574 60.0111 52.5742 61.6428V72.4582C52.5742 74.042 52.5789 75.1966 52.624 76.0617C53.3074 75.5189 54.1828 74.7519 55.3809 73.6926L73.8037 57.4045C77.5072 54.13 80.0465 51.8754 81.6992 49.9435C83.2977 48.0751 83.7177 46.8993 83.7178 45.8273C83.7178 44.7554 83.2976 43.5796 81.6992 41.7111C80.0465 39.7792 77.5074 37.5238 73.8037 34.2492L55.3809 17.9611C54.1827 16.9018 53.3074 16.1348 52.624 15.592C52.5789 16.4571 52.5742 17.6114 52.5742 19.1955V30.0109Z" fill="white"/>
</svg>
