<svg width="94" height="95" viewBox="0 0 94 95" fill="none" xmlns="http://www.w3.org/2000/svg">
<path d="M4.88281 47.2728C4.88281 35.4275 9.70924 24.7134 17.48 17.031C18.6355 15.8887 20.4903 15.9081 21.6231 17.0733C22.7558 18.2386 22.7404 20.109 21.5849 21.2513C14.8914 27.8682 10.7427 37.0787 10.7427 47.2728C10.7427 67.3977 26.9212 83.7122 46.8784 83.7122C66.8356 83.7122 83.0141 67.3977 83.0141 47.2728C83.0141 27.1479 66.8356 10.8334 46.8784 10.8334C45.2602 10.8334 43.9485 9.51061 43.9485 7.87886C43.9485 6.24711 45.2602 4.92432 46.8784 4.92432C70.0719 4.92432 88.874 23.8844 88.874 47.2728C88.874 70.6612 70.0719 89.6213 46.8784 89.6213C23.6849 89.6213 4.88281 70.6612 4.88281 47.2728Z" fill="white"/>
<path opacity="0.7" d="M16.6016 47.2727C16.6016 45.641 17.9133 44.3182 19.5315 44.3182C21.1496 44.3182 22.4614 45.641 22.4614 47.2727C22.4614 60.8707 33.3928 71.8939 46.8774 71.8939C60.3621 71.8939 71.2935 60.8707 71.2935 47.2727C71.2935 33.6748 60.3621 22.6515 46.8774 22.6515C45.2593 22.6515 43.9475 21.3287 43.9475 19.697C43.9475 18.0652 45.2593 16.7424 46.8774 16.7424C63.5984 16.7424 77.1533 30.4113 77.1533 47.2727C77.1533 64.1342 63.5984 77.803 46.8774 77.803C30.1565 77.803 16.6016 64.1342 16.6016 47.2727Z" fill="white"/>
<path opacity="0.4" d="M59.5755 47.2727C59.5755 40.2017 53.8911 34.4696 46.8791 34.4696C45.261 34.4696 43.9492 33.1468 43.9492 31.5151C43.9492 29.8833 45.261 28.5605 46.8791 28.5605C57.1274 28.5605 65.4353 36.9382 65.4353 47.2727C65.4353 57.6071 57.1274 65.9848 46.8791 65.9848C45.261 65.9848 43.9492 64.662 43.9492 63.0302C43.9492 61.3985 45.261 60.0757 46.8791 60.0757C53.8911 60.0757 59.5755 54.3436 59.5755 47.2727Z" fill="white"/>
</svg>
