<svg width="95" height="95" viewBox="0 0 95 95" fill="none" xmlns="http://www.w3.org/2000/svg">
<path d="M44.3182 23.6349C44.3182 19.6869 44.3033 17.1641 43.9335 15.3137C43.6115 13.7031 43.0844 12.9256 42.1139 12.2822C40.9685 11.5232 40.146 11.3966 39.0593 11.5705C37.6716 11.7928 35.9732 12.4866 33.081 13.7094C30.9749 14.5999 28.9489 15.6931 27.0295 16.9756C21.0371 20.9796 16.3651 26.671 13.6071 33.3295C10.8497 39.9872 10.1279 47.3128 11.5335 54.3806C12.9395 61.4488 16.4094 67.9428 21.5051 73.0389C26.6011 78.1348 33.0951 81.6043 40.1634 83.0105C47.2319 84.4165 54.56 83.6949 61.2184 80.9369C67.8762 78.1788 73.5685 73.5103 77.5722 67.5183C78.855 65.5986 79.9439 63.5695 80.8346 61.463C82.0573 58.5711 82.7549 56.8762 82.9774 55.4886C83.1517 54.4007 83.0218 53.5766 82.2618 52.4301C81.6184 51.4598 80.8412 50.9324 79.2303 50.6105C77.3798 50.2408 74.8573 50.2258 70.9091 50.2258H63.0303C59.3998 50.2258 56.3779 50.2352 53.9897 49.9142C51.5178 49.5816 49.2858 48.8488 47.4921 47.0558C45.6979 45.2616 44.9662 43.0272 44.6337 40.5543C44.3126 38.1661 44.3182 35.1442 44.3182 31.5137V23.6349ZM50.2273 31.5137C50.2273 35.3106 50.2332 37.8628 50.4889 39.7656C50.7332 41.5826 51.1569 42.3607 51.67 42.874C52.1833 43.3873 52.9609 43.8107 54.7784 44.0551C56.6813 44.3109 59.2327 44.3167 63.0303 44.3167H70.9091L73.5944 44.3244C76.1806 44.3446 78.4689 44.4333 80.3883 44.8168C83.187 45.3761 85.4926 46.6104 87.1861 49.164C88.7631 51.543 89.2192 53.8666 88.8095 56.4234C88.4478 58.6801 87.3918 61.1296 86.2782 63.7636C85.2431 66.2117 83.9756 68.5689 82.4849 70.7999C77.832 77.7635 71.2178 83.1905 63.4805 86.3959C55.7423 89.6011 47.2241 90.442 39.0093 88.808C30.7951 87.1738 23.2494 83.1389 17.3272 77.2168C11.4052 71.2945 7.37391 63.7489 5.73987 55.5347C4.10588 47.3201 4.94308 38.8054 8.14813 31.0674C11.3531 23.3298 16.7807 16.7162 23.7441 12.0629C25.9751 10.5722 28.3322 9.30093 30.7804 8.26584C33.4141 7.15236 35.8641 6.09641 38.1206 5.73448C40.6774 5.32478 43.001 5.78085 45.38 7.35794C47.9347 9.05149 49.1716 11.3566 49.731 14.1557C50.2425 16.7152 50.2273 19.9319 50.2273 23.6349V31.5137Z" fill="white"/>
<path opacity="0.5" d="M54.2574 8.38511C54.664 6.80545 56.2748 5.85212 57.8544 6.25768C72.74 10.089 84.4534 21.8024 88.2847 36.688C88.6914 38.2679 87.7409 39.8779 86.1611 40.285C84.5812 40.6916 82.9713 39.7411 82.5641 38.1614C79.2696 25.3614 69.1846 15.2772 56.3849 11.9821C54.8052 11.5755 53.8519 9.96478 54.2574 8.38511Z" fill="white"/>
</svg>
