<svg width="95" height="95" viewBox="0 0 95 95" fill="none" xmlns="http://www.w3.org/2000/svg">
<path d="M79.7724 40.7638C79.7724 34.4281 79.772 29.8011 79.5916 26.4873C79.5015 24.8331 79.3712 23.6061 79.1992 22.7133C79.1144 22.2736 79.0276 21.9571 78.9491 21.7362C78.8813 21.5458 78.831 21.4621 78.8221 21.4477C78.816 21.4401 78.7593 21.3716 78.6067 21.2476C78.4309 21.1047 78.1692 20.9193 77.7873 20.6975C77.013 20.2478 75.9086 19.7309 74.3865 19.1125C71.3354 17.873 66.9882 16.3818 61.0295 14.3421L58.7713 13.5727C52.4118 11.3959 49.8633 10.5605 47.2724 10.5605C44.6814 10.5605 42.133 11.3959 35.7735 13.5727L33.5153 14.3421C27.5566 16.3818 23.2093 17.873 20.1583 19.1125C18.6362 19.7309 17.5317 20.2478 16.7575 20.6975C16.3756 20.9193 16.1139 21.1047 15.938 21.2476C15.7854 21.3716 15.7287 21.4401 15.7226 21.4477C15.7138 21.4621 15.6634 21.5458 15.5956 21.7362C15.5171 21.9571 15.4303 22.2736 15.3456 22.7133C15.1735 23.6061 15.0433 24.8331 14.9532 26.4873C14.7728 29.8011 14.7724 34.4281 14.7724 40.7638V46.9652C14.7724 67.352 30.0191 77.3856 40.1784 81.8235C41.6407 82.4623 42.485 82.8253 43.4253 83.0661C44.3238 83.2961 45.4209 83.4393 47.2724 83.4393C49.1239 83.4393 50.2209 83.2961 51.1194 83.0661C52.0597 82.8253 52.904 82.4623 54.3664 81.8235C64.5256 77.3856 79.7724 67.352 79.7724 46.9652V40.7638ZM85.6815 46.9652C85.6815 70.9997 67.5275 82.5245 56.7323 87.2402C55.3544 87.8421 54.0684 88.4107 52.5852 88.7905C51.0588 89.1813 49.4361 89.3483 47.2724 89.3483C45.1086 89.3483 43.4859 89.1813 41.9596 88.7905C40.4764 88.4107 39.1903 87.8421 37.8124 87.2402C27.0173 82.5245 8.86328 70.9997 8.86328 46.9652V40.7638C8.86328 34.503 8.86044 29.6784 9.05179 26.1642C9.14762 24.405 9.29807 22.8712 9.54421 21.5938C9.78107 20.3654 10.1583 19.0887 10.8868 18.0507C11.6242 17.0003 12.7096 16.2168 13.7914 15.5886C14.9153 14.9359 16.3113 14.2976 17.9347 13.6381C21.1774 12.3207 25.7179 10.7669 31.6033 8.75234L33.8577 7.97908C39.8454 5.92945 43.4707 4.65137 47.2724 4.65137C51.074 4.65137 54.6993 5.92945 60.6871 7.97908L62.9415 8.75234C68.8269 10.7669 73.3673 12.3207 76.6101 13.6381C78.2335 14.2976 79.6295 14.9359 80.7534 15.5886C81.8351 16.2168 82.9205 17.0003 83.6579 18.0507C84.3865 19.0887 84.7637 20.3654 85.0005 21.5938C85.2467 22.8712 85.3971 24.405 85.493 26.1642C85.6843 29.6784 85.6815 34.503 85.6815 40.7638V46.9652Z" fill="white"/>
<path opacity="0.5" d="M54.9161 37.1524C56.003 35.936 57.8733 35.8312 59.0902 36.9177C60.3066 38.0046 60.4114 39.8749 59.3248 41.0918L45.2561 56.8493C44.6957 57.4767 43.893 57.834 43.0518 57.8342C42.2106 57.8342 41.4079 57.4765 40.8474 56.8493L35.2191 50.544C34.1333 49.3273 34.2383 47.4606 35.4538 46.3738C36.671 45.287 38.5411 45.3913 39.6279 46.6084L43.0479 50.4401L54.9161 37.1524Z" fill="white"/>
</svg>
