<svg width="95" height="95" viewBox="0 0 95 95" fill="none" xmlns="http://www.w3.org/2000/svg">
<path d="M79.7724 51.2121C79.7724 33.2628 65.2216 18.7121 47.2724 18.7121C29.3231 18.7121 14.7724 33.2628 14.7724 51.2121C14.7724 69.1613 29.3231 83.7121 47.2724 83.7121C65.2216 83.7121 79.7724 69.1613 79.7724 51.2121ZM85.6815 51.2121C85.6815 72.4248 68.4851 89.6212 47.2724 89.6212C26.0596 89.6212 8.86328 72.4248 8.86328 51.2121C8.86328 29.9993 26.0596 12.803 47.2724 12.803C68.4851 12.803 85.6815 29.9993 85.6815 51.2121Z" fill="white"/>
<path opacity="0.5" d="M55.1496 4.92432C56.7814 4.92432 58.1042 6.24711 58.1042 7.87886C58.1042 9.51061 56.7814 10.8334 55.1496 10.8334H39.392C37.7603 10.8334 36.4375 9.51061 36.4375 7.87886C36.4375 6.24711 37.7603 4.92432 39.392 4.92432H55.1496Z" fill="white"/>
<path opacity="0.5" d="M58.1051 51.2121C58.1051 50.6087 57.9514 50.0961 57.2318 49.2578C56.3841 48.2706 55.0392 47.1598 52.8385 45.3645C51.7026 44.4379 50.6017 43.5879 49.6146 42.8947C48.7496 42.2874 47.7511 41.6428 46.6909 40.9981C44.4621 39.6428 43.1789 38.8824 42.236 38.5437C41.9794 38.4515 41.828 38.4219 41.7551 38.4129C41.6567 38.4886 41.3657 38.7573 41.1088 40.0825C40.8326 41.5078 40.7089 43.505 40.5317 46.5687C40.4363 48.2181 40.3778 49.8081 40.3778 51.2121C40.3778 52.6161 40.4363 54.2061 40.5317 55.8555C40.7089 58.9191 40.8326 60.9163 41.1088 62.3416C41.3641 63.6586 41.6549 63.9298 41.7551 64.0074C41.8282 63.9983 41.9799 63.9724 42.236 63.8805C43.1789 63.5417 44.4621 62.7814 46.6909 61.426C47.7511 60.7813 48.7496 60.1368 49.6146 59.5294C50.6017 58.8363 51.7026 57.9862 52.8385 57.0596C55.0392 55.2644 56.3841 54.1536 57.2318 53.1664C57.9514 52.328 58.1051 51.8154 58.1051 51.2121ZM64.0142 51.2121C64.0142 53.5624 63.1103 55.3908 61.7137 57.0173C60.4441 58.4958 58.6078 59.9785 56.574 61.6376C55.3729 62.6174 54.1545 63.5626 53.0116 64.3652C52.0078 65.0701 50.8918 65.7856 49.7608 66.4734C47.765 67.6871 45.8756 68.8531 44.2326 69.4433C43.3554 69.7582 42.3491 69.9891 41.2665 69.9088C40.1282 69.8242 39.108 69.41 38.2196 68.7431C36.4112 67.3856 35.6862 65.4197 35.3074 63.465C34.9378 61.5577 34.8013 59.0883 34.6342 56.1979C34.5348 54.4797 34.4688 52.7676 34.4688 51.2121C34.4688 49.6565 34.5348 47.9444 34.6342 46.2263C34.8013 43.3359 34.9378 40.8664 35.3074 38.9592C35.6862 37.0044 36.4112 35.0386 38.2196 33.681C39.108 33.0141 40.1282 32.5999 41.2665 32.5153C42.3491 32.435 43.3554 32.6659 44.2326 32.9808C45.8756 33.5711 47.765 34.7371 49.7608 35.9508C50.8918 36.6385 52.0078 37.3541 53.0116 38.059C54.1545 38.8615 55.3729 39.8068 56.574 40.7865C58.6078 42.4457 60.4441 43.9283 61.7137 45.4069C63.1103 47.0333 64.0142 48.8617 64.0142 51.2121Z" fill="white"/>
</svg>
