<svg width="95" height="95" viewBox="0 0 95 95" fill="none" xmlns="http://www.w3.org/2000/svg">
<path d="M28.5621 19.4241C28.5621 14.5288 24.5938 10.5605 19.6985 10.5605C14.8033 10.5605 10.8349 14.5288 10.8349 19.4241C10.8349 24.3193 14.8033 28.2877 19.6985 28.2877C24.5938 28.2877 28.5621 24.3193 28.5621 19.4241ZM34.4712 19.4241C34.4712 27.5828 27.8573 34.1968 19.6985 34.1968C11.5398 34.1968 4.92578 27.5828 4.92578 19.4241C4.92578 11.2653 11.5398 4.65137 19.6985 4.65137C27.8573 4.65137 34.4712 11.2653 34.4712 19.4241Z" fill="white"/>
<path d="M83.7106 74.5757C83.7106 69.6805 79.7422 65.7121 74.8469 65.7121C69.9517 65.7121 65.9833 69.6805 65.9833 74.5757C65.9833 79.471 69.9517 83.4393 74.8469 83.4393C79.7422 83.4393 83.7106 79.471 83.7106 74.5757ZM89.6197 74.5757C89.6197 82.7345 83.0057 89.3484 74.8469 89.3484C66.6882 89.3484 60.0742 82.7345 60.0742 74.5757C60.0742 66.417 66.6882 59.803 74.8469 59.803C83.0057 59.803 89.6197 66.417 89.6197 74.5757Z" fill="white"/>
<path opacity="0.5" d="M63.5516 16.4697C74.3889 16.4705 78.511 30.6248 69.3683 36.4437L28.3509 62.5422C24.1961 65.1875 26.0718 71.6212 30.9977 71.6212H44.0816L43.216 70.7557C42.0622 69.6018 42.0622 67.7316 43.216 66.5777C44.3699 65.4245 46.2403 65.4241 47.3939 66.5777L53.303 72.4868C54.4561 73.6405 54.4561 75.5111 53.303 76.6647L47.3939 82.5738C46.2403 83.7275 44.3699 83.7271 43.216 82.5738C42.0622 81.42 42.0622 79.5497 43.216 78.3959L44.0816 77.5303H30.9977C20.1595 77.5303 16.0372 63.3751 25.181 57.5564L66.1945 31.4579C70.3505 28.8132 68.4774 22.3796 63.5516 22.3788H43.3353C41.7035 22.3788 40.3807 21.056 40.3807 19.4243C40.3807 17.7925 41.7035 16.4697 43.3353 16.4697H63.5516Z" fill="white"/>
</svg>
