<svg width="95" height="95" viewBox="0 0 95 95" fill="none" xmlns="http://www.w3.org/2000/svg">
<path opacity="0.5" d="M47.2786 86.6708C69.0364 86.6708 86.6745 69.0327 86.6745 47.275C86.6745 25.5173 69.0364 7.87915 47.2786 7.87915C25.5209 7.87915 7.88281 25.5173 7.88281 47.275C7.88281 69.0327 25.5209 86.6708 47.2786 86.6708Z" stroke="white" stroke-width="5.90938"/>
<path d="M35.457 66.9728C38.8072 64.4897 42.8816 63.0332 47.2758 63.0332C51.67 63.0332 55.7443 64.4897 59.0945 66.9728" stroke="white" stroke-width="5.90938" stroke-linecap="round"/>
<path d="M59.0958 47.2748C61.2716 47.2748 63.0354 44.6291 63.0354 41.3654C63.0354 38.1018 61.2716 35.4561 59.0958 35.4561C56.9201 35.4561 55.1562 38.1018 55.1562 41.3654C55.1562 44.6291 56.9201 47.2748 59.0958 47.2748Z" fill="white"/>
<path d="M35.4591 47.2748C37.6349 47.2748 39.3987 44.6291 39.3987 41.3654C39.3987 38.1018 37.6349 35.4561 35.4591 35.4561C33.2833 35.4561 31.5195 38.1018 31.5195 41.3654C31.5195 44.6291 33.2833 47.2748 35.4591 47.2748Z" fill="white"/>
</svg>
