<svg width="95" height="95" viewBox="0 0 95 95" fill="none" xmlns="http://www.w3.org/2000/svg">
<path d="M75.8389 39.3958C75.8389 31.8837 75.8324 26.5469 75.2881 22.4983C74.7552 18.5347 73.7552 16.2515 72.0879 14.5842C70.4206 12.917 68.1374 11.9169 64.1738 11.384C60.1253 10.8397 54.7884 10.8342 47.2764 10.8342C39.7643 10.8342 34.4275 10.8397 30.3789 11.384C26.4153 11.9169 24.1321 12.917 22.4648 14.5842C20.7976 16.2515 19.7975 18.5347 19.2647 22.4983C18.7203 26.5469 18.7148 31.8837 18.7148 39.3958V55.1545C18.7148 62.6664 18.7203 68.0035 19.2647 72.052C19.7976 76.0154 20.7976 78.2988 22.4648 79.9661C24.1321 81.6332 26.4155 82.6324 30.3789 83.1653C34.4275 83.7096 39.7643 83.7161 47.2764 83.7161C54.7884 83.7161 60.1253 83.7096 64.1738 83.1653C68.1372 82.6324 70.4206 81.6332 72.0879 79.9661C73.7551 78.2988 74.7552 76.0154 75.2881 72.052C75.8324 68.0035 75.8389 62.6664 75.8389 55.1545V39.3958ZM81.748 55.1545C81.748 62.4994 81.7541 68.3053 81.1445 72.8391C80.5235 77.4579 79.2148 81.1966 76.2666 84.1448C73.3184 87.0929 69.5797 88.4008 64.9609 89.0217C60.4271 89.6312 54.6212 89.6252 47.2764 89.6252C39.9315 89.6252 34.1256 89.6313 29.5918 89.0217C24.973 88.4008 21.2343 87.0929 18.2861 84.1448C15.3379 81.1965 14.0292 77.4579 13.4082 72.8391C12.7987 68.3053 12.8047 62.4994 12.8047 55.1545V39.3958C12.8047 32.0509 12.7987 26.245 13.4082 21.7112C14.0292 17.0923 15.3379 13.3538 18.2861 10.4055C21.2344 7.45728 24.9729 6.14858 29.5918 5.52759C34.1256 4.91807 39.9315 4.92407 47.2764 4.92407C54.6212 4.92407 60.4271 4.91808 64.9609 5.52759C69.5798 6.14857 73.3184 7.45733 76.2666 10.4055C79.2148 13.3538 80.5235 17.0923 81.1445 21.7112C81.7541 26.245 81.748 32.0509 81.748 39.3958V55.1545Z" fill="white"/>
<path opacity="0.5" d="M59.0928 71.897C60.7245 71.8971 62.0469 73.2203 62.0469 74.8521C62.0469 76.4838 60.7245 77.807 59.0928 77.8071H35.4551C33.8232 77.8071 32.5 76.4839 32.5 74.8521C32.5 73.2202 33.8232 71.897 35.4551 71.897H59.0928Z" fill="white"/>
</svg>
