<svg width="95" height="95" viewBox="0 0 95 95" fill="none" xmlns="http://www.w3.org/2000/svg">
<path d="M13.7891 43.3362V55.1549C13.7891 70.012 13.7891 77.4406 18.4046 82.0561C23.0201 86.6716 30.4486 86.6716 45.3057 86.6716H49.2453C64.1024 86.6716 71.531 86.6716 76.1465 82.0561C80.762 77.4406 80.762 70.012 80.762 55.1549V43.3362" stroke="white" stroke-width="5.90938"/>
<path opacity="0.5" d="M37.4258 84.7003V72.8816C37.4258 69.1996 37.4258 67.3586 38.2175 65.9873C38.7361 65.0889 39.4821 64.343 40.3805 63.8243C41.7517 63.0326 43.5927 63.0326 47.2747 63.0326C50.9567 63.0326 52.7977 63.0326 54.169 63.8243C55.0673 64.343 55.8133 65.0889 56.332 65.9873C57.1237 67.3586 57.1237 69.1996 57.1237 72.8816V84.7003" stroke="white" stroke-width="5.90938" stroke-linecap="round"/>
<path d="M37.4276 7.87988H57.1255L59.6931 33.5556C60.4277 40.9015 54.6591 47.2757 47.2765 47.2757C39.894 47.2757 34.1254 40.9015 34.86 33.5556L37.4276 7.87988Z" stroke="white" stroke-width="5.90938"/>
<path d="M13.1171 21.0827C13.8187 17.5749 14.1695 15.821 14.8827 14.3993C16.3855 11.4034 19.0897 9.18654 22.3221 8.30042C23.8561 7.87988 25.6447 7.87988 29.222 7.87988H37.4254L34.5711 36.4232C33.955 42.5841 28.7708 47.2757 22.5792 47.2757C14.974 47.2757 9.27007 40.318 10.7616 32.8605L13.1171 21.0827Z" stroke="white" stroke-width="5.90938"/>
<path d="M81.4333 21.0827C80.7317 17.5749 80.3809 15.821 79.6677 14.3993C78.1649 11.4034 75.4607 9.18654 72.2283 8.30042C70.6943 7.87988 68.9057 7.87988 65.3284 7.87988H57.125L59.9793 36.4232C60.5954 42.5841 65.7796 47.2757 71.9712 47.2757C79.5764 47.2757 85.2803 40.318 83.7888 32.8605L81.4333 21.0827Z" stroke="white" stroke-width="5.90938"/>
</svg>
