<svg width="96" height="95" viewBox="0 0 96 95" fill="none" xmlns="http://www.w3.org/2000/svg">
<path d="M53.0777 23.3635C53.0777 16.2926 47.3455 10.5605 40.2746 10.5605C33.2037 10.5605 27.4716 16.2926 27.4716 23.3635C27.4716 30.4344 33.2037 36.1665 40.2746 36.1665C47.3455 36.1665 53.0777 30.4344 53.0777 23.3635ZM58.9867 23.3635C58.9867 33.6979 50.609 42.0756 40.2746 42.0756C29.9402 42.0756 21.5625 33.6979 21.5625 23.3635C21.5625 13.0291 29.9402 4.65137 40.2746 4.65137C50.609 4.65137 58.9867 13.0291 58.9867 23.3635Z" fill="white"/>
<path d="M64.8937 66.697C64.8937 63.8639 62.8573 60.7224 58.3075 58.1219C53.8397 55.5689 47.4684 53.894 40.2725 53.894C33.0766 53.894 26.7052 55.5689 22.2375 58.1219C17.6877 60.7224 15.6513 63.8639 15.6513 66.697C15.6513 69.53 17.6877 72.6716 22.2375 75.2721C26.7052 77.8251 33.0766 79.5 40.2725 79.5C47.4684 79.5 53.8397 77.8251 58.3075 75.2721C62.8573 72.6716 64.8937 69.53 64.8937 66.697ZM70.8028 66.697C70.8028 72.5656 66.6674 77.3017 61.239 80.4041C55.7263 83.5542 48.3062 85.4091 40.2725 85.4091C32.2387 85.4091 24.8187 83.5542 19.306 80.4041C13.8776 77.3017 9.74219 72.5656 9.74219 66.697C9.74219 60.8283 13.8776 56.0922 19.306 52.9899C24.8187 49.8398 32.2387 47.9849 40.2725 47.9849C48.3062 47.9849 55.7263 49.8398 61.239 52.9899C66.6674 56.0922 70.8028 60.8283 70.8028 66.697Z" fill="white"/>
<path opacity="0.5" d="M80.6533 23.3638C80.6533 18.6076 78.9688 15.2861 77.3256 13.1499C76.4956 12.071 75.6696 11.2896 75.0674 10.7878C74.7686 10.5388 74.5288 10.3608 74.3749 10.253C74.2981 10.1993 74.2421 10.16 74.2133 10.1415V10.1376L74.2095 10.1415L74.2018 10.1338C74.1967 10.1305 74.1917 10.1309 74.1903 10.1299H74.1941C72.8072 9.28662 72.3583 7.48062 73.1939 6.08666C74.0332 4.68782 75.8496 4.23243 77.2487 5.07103L77.2525 5.07488H77.2564L77.2602 5.07873C77.2646 5.08138 77.2703 5.087 77.2756 5.09027C77.2861 5.0967 77.3 5.10457 77.3141 5.11335C77.3428 5.13126 77.379 5.15495 77.4218 5.1826C77.5081 5.23842 77.6227 5.31326 77.7603 5.40957C78.0373 5.60347 78.4144 5.88284 78.8529 6.24823C79.7277 6.97736 80.8723 8.06825 82.0113 9.54902C84.3071 12.5341 86.5624 17.0909 86.5624 23.3638C86.5624 29.6368 84.3071 34.1936 82.0113 37.1786C80.8723 38.6594 79.7277 39.7503 78.8529 40.4794C78.4144 40.8448 78.0373 41.1242 77.7603 41.3181C77.6227 41.4144 77.5081 41.4892 77.4218 41.545C77.379 41.5727 77.3428 41.5964 77.3141 41.6143C77.3 41.6231 77.2861 41.631 77.2756 41.6374C77.2703 41.6406 77.2646 41.6463 77.2602 41.6489L77.2564 41.6528H77.2525L77.2487 41.6566C75.8496 42.4952 74.0332 42.0398 73.1939 40.641C72.3583 39.247 72.8072 37.441 74.1941 36.5977H74.1903C74.1919 36.5967 74.1957 36.594 74.2018 36.59L74.2095 36.5862H74.2133L74.3749 36.4746C74.5288 36.3668 74.7686 36.1888 75.0674 35.9399C75.6696 35.438 76.4956 34.6567 77.3256 33.5778C78.9688 31.4416 80.6533 28.12 80.6533 23.3638Z" fill="white"/>
<path opacity="0.5" d="M68.8351 23.3637C68.8351 21.3653 68.1354 20.0148 67.4771 19.1589C67.1394 18.7198 66.806 18.4028 66.573 18.2086C66.4622 18.1163 66.3777 18.0533 66.3307 18.0201L66.3268 18.0163C66.321 18.0122 66.3159 18.0078 66.3114 18.0047C64.9281 17.1603 64.4804 15.3578 65.315 13.9653C66.1544 12.5665 67.9708 12.1111 69.3699 12.9497L69.3737 12.9535H69.3775L69.3814 12.9574C69.3851 12.9596 69.3888 12.9626 69.3929 12.9651C69.4017 12.9705 69.413 12.9776 69.4237 12.9843C69.4451 12.9976 69.472 13.012 69.5007 13.0305C69.5581 13.0677 69.6283 13.1179 69.7122 13.1767C69.8815 13.2952 70.1047 13.4576 70.3586 13.6691C70.8642 14.0905 71.5157 14.7129 72.1628 15.5542C73.4741 17.2589 74.7442 19.8473 74.7442 23.3637C74.7442 26.8801 73.4741 29.4685 72.1628 31.1732C71.5157 32.0145 70.8642 32.6369 70.3586 33.0583C70.1047 33.2698 69.8815 33.4322 69.7122 33.5507C69.6283 33.6095 69.5581 33.6597 69.5007 33.6969C69.472 33.7154 69.4451 33.7298 69.4237 33.7431C69.413 33.7498 69.4017 33.7569 69.3929 33.7623C69.3888 33.7648 69.3851 33.7678 69.3814 33.77L69.3775 33.7739H69.3737L69.3699 33.7777C67.9708 34.6163 66.1544 34.1609 65.315 32.7621C64.4771 31.3641 64.9307 29.5513 66.3268 28.7111L66.573 28.5188C66.806 28.3246 67.1394 28.0076 67.4771 27.5685C68.1354 26.7126 68.8351 25.3621 68.8351 23.3637ZM66.2884 28.7342L66.3114 28.7188L66.3268 28.7111C66.304 28.7271 66.2884 28.7342 66.2884 28.7342ZM66.3114 18.0047C66.3169 18.0081 66.3214 18.013 66.3268 18.0163L66.3114 18.0086C66.3067 18.0057 66.3031 18.0029 66.2999 18.0009L66.3114 18.0047Z" fill="white"/>
</svg>
