<svg width="95" height="95" viewBox="0 0 95 95" fill="none" xmlns="http://www.w3.org/2000/svg">
<path d="M37.2788 10.8382C43.6709 7.8419 50.8645 7.84147 57.2566 10.8382L83.6128 23.1988C87.7582 25.1423 89.6142 29.3608 89.6142 33.2127C89.6142 37.0647 87.7582 41.287 83.6128 43.2305L57.2566 55.5873C50.8644 58.5841 43.671 58.5837 37.2788 55.5873L18.4358 46.7544C16.9584 46.0617 16.3236 44.3001 17.0163 42.8227C17.7092 41.3462 19.4671 40.711 20.9441 41.4031L39.7871 50.236C44.5902 52.4876 49.9452 52.4878 54.7483 50.236L81.1045 37.8792C82.6928 37.1346 83.7051 35.3574 83.7051 33.2127C83.7051 31.0682 82.6928 29.2909 81.1045 28.5463L54.7483 16.1895C49.9453 13.9377 44.5901 13.938 39.7871 16.1895L13.427 28.5463C11.9498 29.2388 10.1921 28.6035 9.49911 27.1267C8.80645 25.6492 9.44124 23.8876 10.9187 23.195L37.2788 10.8382Z" fill="white"/>
<path opacity="0.5" d="M6.89453 58.8173V47.5416C6.89453 45.0862 6.89177 43.0106 7.07535 41.3093C7.26675 39.5365 7.68153 37.9006 8.68342 36.3812C9.68527 34.8621 11.0228 33.8354 12.5766 32.9612C14.0682 32.1221 15.9784 31.3088 18.2357 30.3414L22.4713 28.5255C23.9706 27.883 25.7097 28.5771 26.353 30.0759C26.9956 31.5753 26.3015 33.3143 24.8026 33.9576L20.5632 35.7734C18.1887 36.791 16.6232 37.4657 15.4735 38.1124C14.3868 38.7239 13.9147 39.182 13.6154 39.6359C13.3164 40.0897 13.0836 40.705 12.9498 41.9441C12.8084 43.2554 12.8036 44.9593 12.8036 47.5416V58.8173C12.8036 60.4491 11.4808 61.7719 9.84908 61.7719C8.21733 61.7719 6.89453 60.4491 6.89453 58.8173Z" fill="white"/>
<path d="M16.7422 65.2196V45.0302C16.7422 43.3985 18.065 42.0757 19.6967 42.0757C21.3285 42.0757 22.6513 43.3985 22.6513 45.0302V65.2196C22.6513 68.2254 24.1447 70.8957 26.5868 72.2482C29.4099 73.8116 33.0405 75.6497 36.7892 77.0878C40.5858 78.5442 44.2707 79.4999 47.2725 79.4999C50.2742 79.4999 53.9592 78.5442 57.7557 77.0878C61.5045 75.6497 65.1351 73.8116 67.9582 72.2482C70.4003 70.8957 71.8937 68.2254 71.8937 65.2196V45.0302C71.8937 43.3985 73.2165 42.0757 74.8482 42.0757C76.48 42.0757 77.8028 43.3985 77.8028 45.0302V65.2196C77.8028 70.1559 75.326 74.9235 70.8204 77.4187C67.8595 79.0583 63.9697 81.0337 59.8755 82.6045C55.8284 84.1571 51.3455 85.409 47.2725 85.409C43.1995 85.409 38.7166 84.1571 34.6695 82.6045C30.5753 81.0337 26.6855 79.0583 23.7246 77.4187C19.219 74.9235 16.7422 70.1559 16.7422 65.2196Z" fill="white"/>
</svg>
