<svg width="95" height="95" viewBox="0 0 95 95" fill="none" xmlns="http://www.w3.org/2000/svg">
<path d="M24.6228 68.6666C24.6228 66.7713 24.6183 65.547 24.5343 64.6194C24.4539 63.7329 24.3194 63.4108 24.2265 63.2499C23.9672 62.8009 23.5945 62.4281 23.1455 62.1689C22.9845 62.0759 22.6625 61.9415 21.7759 61.8611C20.8484 61.777 19.6241 61.7726 17.7288 61.7726C15.8335 61.7726 14.6093 61.777 13.6817 61.8611C12.7951 61.9415 12.4731 62.0759 12.3121 62.1689C11.8631 62.4281 11.4904 62.8009 11.2311 63.2499C11.1382 63.4108 11.0037 63.7329 10.9234 64.6194C10.8393 65.547 10.8349 66.7713 10.8349 68.6666C10.8349 70.5618 10.8393 71.7861 10.9234 72.7137C11.0037 73.6002 11.1382 73.9223 11.2311 74.0832C11.4904 74.5322 11.8631 74.905 12.3121 75.1643C12.4731 75.2572 12.7951 75.3916 13.6817 75.472C14.6093 75.5561 15.8335 75.5605 17.7288 75.5605C19.6241 75.5605 20.8484 75.5561 21.7759 75.472C22.6625 75.3916 22.9845 75.2572 23.1455 75.1643C23.5945 74.905 23.9672 74.5322 24.2265 74.0832C24.3194 73.9223 24.4539 73.6002 24.5343 72.7137C24.6183 71.7861 24.6228 70.5618 24.6228 68.6666ZM30.5318 68.6666C30.5318 70.4531 30.5341 71.9923 30.4203 73.2484C30.3027 74.5446 30.0415 75.8281 29.3431 77.0378C28.5653 78.3848 27.4471 79.503 26.1 80.2808C24.8903 80.9793 23.6069 81.2404 22.3107 81.358C21.0545 81.4719 19.5154 81.4696 17.7288 81.4696C15.9423 81.4696 14.4031 81.4719 13.147 81.358C11.8508 81.2404 10.5673 80.9793 9.3576 80.2808C8.01058 79.503 6.89236 78.3848 6.11453 77.0378C5.41611 75.8281 5.15496 74.5446 5.03735 73.2484C4.9235 71.9923 4.92578 70.4531 4.92578 68.6666C4.92578 66.88 4.9235 65.3409 5.03735 64.0847C5.15496 62.7885 5.41611 61.505 6.11453 60.2953C6.89236 58.9483 8.01058 57.8301 9.3576 57.0523C10.5673 56.3539 11.8508 56.0927 13.147 55.9751C14.4031 55.8612 15.9423 55.8635 17.7288 55.8635C19.5153 55.8635 21.0545 55.8612 22.3107 55.9751C23.6069 56.0927 24.8903 56.3539 26.1 57.0523C27.4471 57.8301 28.5653 58.9483 29.3431 60.2953C30.0415 61.505 30.3027 62.7885 30.4203 64.0847C30.5341 65.3409 30.5318 66.88 30.5318 68.6666Z" fill="white"/>
<path opacity="0.5" d="M54.1657 68.6666C54.1657 66.7713 54.1613 65.547 54.0772 64.6194C53.9968 63.7329 53.8624 63.4108 53.7695 63.2499C53.5102 62.8009 53.1375 62.4281 52.6884 62.1689C52.5275 62.0759 52.2055 61.9415 51.3189 61.8611C50.3913 61.777 49.1671 61.7726 47.2718 61.7726C45.3765 61.7726 44.1522 61.777 43.2247 61.8611C42.3381 61.9415 42.0161 62.0759 41.8551 62.1689C41.4061 62.4281 41.0334 62.8009 40.7741 63.2499C40.6812 63.4108 40.5467 63.7329 40.4663 64.6194C40.3823 65.547 40.3778 66.7713 40.3778 68.6666C40.3778 70.5618 40.3823 71.7861 40.4663 72.7137C40.5467 73.6002 40.6812 73.9223 40.7741 74.0832C41.0334 74.5322 41.4061 74.905 41.8551 75.1643C42.0161 75.2572 42.3381 75.3916 43.2247 75.472C44.1522 75.5561 45.3765 75.5605 47.2718 75.5605C49.1671 75.5605 50.3913 75.5561 51.3189 75.472C52.2055 75.3916 52.5275 75.2572 52.6884 75.1643C53.1375 74.905 53.5102 74.5322 53.7695 74.0832C53.8624 73.9223 53.9968 73.6002 54.0772 72.7137C54.1613 71.7861 54.1657 70.5618 54.1657 68.6666ZM60.0748 68.6666C60.0748 70.4531 60.0771 71.9923 59.9632 73.2484C59.8456 74.5446 59.5845 75.8281 58.8861 77.0378C58.1082 78.3848 56.99 79.503 55.643 80.2808C54.4333 80.9793 53.1498 81.2404 51.8536 81.358C50.5975 81.4719 49.0583 81.4696 47.2718 81.4696C45.4852 81.4696 43.9461 81.4719 42.6899 81.358C41.3937 81.2404 40.1103 80.9793 38.9006 80.2808C37.5535 79.503 36.4353 78.3848 35.6575 77.0378C34.9591 75.8281 34.6979 74.5446 34.5803 73.2484C34.4665 71.9923 34.4688 70.4531 34.4688 68.6666C34.4688 66.88 34.4665 65.3409 34.5803 64.0847C34.6979 62.7885 34.9591 61.505 35.6575 60.2953C36.4353 58.9483 37.5535 57.8301 38.9006 57.0523C40.1103 56.3539 41.3937 56.0927 42.6899 55.9751C43.9461 55.8612 45.4852 55.8635 47.2718 55.8635C49.0583 55.8635 50.5975 55.8612 51.8536 55.9751C53.1498 56.0927 54.4333 56.3539 55.643 57.0523C56.99 57.8301 58.1082 58.9483 58.8861 60.2953C59.5845 61.505 59.8456 62.7885 59.9632 64.0847C60.0771 65.3409 60.0748 66.88 60.0748 68.6666Z" fill="white"/>
<path opacity="0.7" d="M83.7126 68.6666C83.7126 66.7713 83.7082 65.547 83.6241 64.6194C83.5437 63.7329 83.4093 63.4108 83.3163 63.2499C83.0571 62.8009 82.6843 62.4281 82.2353 62.1689C82.0744 62.0759 81.7523 61.9415 80.8658 61.8611C79.9382 61.777 78.7139 61.7726 76.8187 61.7726C74.9234 61.7726 73.6991 61.777 72.7715 61.8611C71.885 61.9415 71.5629 62.0759 71.402 62.1689C70.953 62.4281 70.5802 62.8009 70.321 63.2499C70.228 63.4108 70.0936 63.7329 70.0132 64.6194C69.9291 65.547 69.9247 66.7713 69.9247 68.6666C69.9247 70.5618 69.9291 71.7861 70.0132 72.7137C70.0936 73.6002 70.228 73.9223 70.321 74.0832C70.5802 74.5322 70.953 74.905 71.402 75.1643C71.5629 75.2572 71.885 75.3916 72.7715 75.472C73.6991 75.5561 74.9234 75.5605 76.8187 75.5605C78.7139 75.5605 79.9382 75.5561 80.8658 75.472C81.7523 75.3916 82.0744 75.2572 82.2353 75.1643C82.6843 74.905 83.0571 74.5322 83.3163 74.0832C83.4093 73.9223 83.5437 73.6002 83.6241 72.7137C83.7082 71.7861 83.7126 70.5618 83.7126 68.6666ZM89.6217 68.6666C89.6217 70.4531 89.624 71.9923 89.5101 73.2484C89.3925 74.5446 89.1314 75.8281 88.4329 77.0378C87.6551 78.3848 86.5369 79.503 85.1899 80.2808C83.9802 80.9793 82.6967 81.2404 81.4005 81.358C80.1444 81.4719 78.6052 81.4696 76.8187 81.4696C75.0321 81.4696 73.493 81.4719 72.2368 81.358C70.9406 81.2404 69.6571 80.9793 68.4474 80.2808C67.1004 79.503 65.9822 78.3848 65.2044 77.0378C64.506 75.8281 64.2448 74.5446 64.1272 73.2484C64.0133 71.9923 64.0156 70.4531 64.0156 68.6666C64.0156 66.88 64.0133 65.3409 64.1272 64.0847C64.2448 62.7885 64.506 61.505 65.2044 60.2953C65.9822 58.9483 67.1004 57.8301 68.4474 57.0523C69.6571 56.3539 70.9406 56.0927 72.2368 55.9751C73.493 55.8612 75.0321 55.8635 76.8187 55.8635C78.6052 55.8635 80.1444 55.8612 81.4005 55.9751C82.6967 56.0927 83.9802 56.3539 85.1899 57.0523C86.5369 57.8301 87.6551 58.9483 88.4329 60.2953C89.1314 61.505 89.3925 62.7885 89.5101 64.0847C89.624 65.3409 89.6217 66.88 89.6217 68.6666Z" fill="white"/>
<path d="M73.8644 35.1818C73.8644 30.4556 73.8576 27.207 73.5297 24.7678C73.2131 22.4144 72.6463 21.2608 71.8446 20.4591C71.043 19.6574 69.8893 19.0906 67.5359 18.7741C65.0967 18.4461 61.8481 18.4394 57.1219 18.4394H37.425C32.6988 18.4394 29.4502 18.4461 27.011 18.7741C24.6575 19.0906 23.5039 19.6574 22.7022 20.4591C21.9006 21.2608 21.3338 22.4144 21.0172 24.7678C20.6893 27.207 20.6825 30.4556 20.6825 35.1818V58.8182C20.6825 60.4499 19.3597 61.7727 17.728 61.7727C16.0962 61.7727 14.7734 60.4499 14.7734 58.8182V35.1818C14.7734 30.6233 14.769 26.9073 15.162 23.983C15.5666 20.9735 16.4416 18.3639 18.5243 16.2812C20.6071 14.1984 23.2166 13.3234 26.2262 12.9188C29.1505 12.5258 32.8664 12.5303 37.425 12.5303H57.1219C61.6804 12.5303 65.3964 12.5258 68.3207 12.9188C71.3302 13.3234 73.9398 14.1984 76.0226 16.2812C78.1053 18.3639 78.9803 20.9735 79.3849 23.983C79.7779 26.9073 79.7734 30.6233 79.7734 35.1818V39.8675L82.6087 37.0322C83.7625 35.8784 85.6328 35.8784 86.7866 37.0322C87.9405 38.1861 87.9405 40.0563 86.7866 41.2101L78.9078 49.0889C77.754 50.2428 75.8838 50.2428 74.7299 49.0889L66.8512 41.2101C65.6973 40.0563 65.6973 38.1861 66.8512 37.0322C68.005 35.8784 69.8752 35.8784 71.0291 37.0322L73.8644 39.8675V35.1818Z" fill="white"/>
</svg>
