<svg width="1001" height="1167" viewBox="0 0 1001 1167" fill="none" xmlns="http://www.w3.org/2000/svg">
<path d="M501.755 588.471C553.315 588.471 595.113 546.767 595.113 495.323C595.113 443.879 553.315 402.176 501.755 402.176C450.194 402.176 408.396 443.879 408.396 495.323C408.396 546.767 450.194 588.471 501.755 588.471Z" fill="white"/>
<path d="M999.443 483.818V482.79C999.443 477.033 999.443 473.332 999.443 473.332C992.926 344.771 936.772 223.721 842.756 135.569C748.74 47.4162 624.166 -0.991308 495.159 0.497972C366.152 1.98725 242.734 53.2577 150.788 143.557C58.8411 233.856 5.50876 356.17 1.9753 484.847C1.66839 489.022 1.66839 493.214 1.9753 497.39C1.91736 521.793 11.4809 545.239 28.6011 562.667C45.7212 580.095 69.0242 590.105 93.4785 590.537C105.729 590.537 117.859 588.127 129.174 583.443C140.489 578.759 150.767 571.895 159.42 563.243C168.072 554.59 174.93 544.32 179.599 533.02C184.268 521.72 186.658 509.612 186.63 497.39C186.697 425.118 211.864 355.103 257.847 299.262C303.831 243.421 367.788 205.206 438.834 191.121C509.88 177.036 583.622 187.951 647.509 222.01C711.396 256.069 761.479 311.166 789.233 377.922C802.586 410.679 810.387 445.424 812.314 480.734C812.314 482.79 812.314 484.847 812.314 487.108C812.314 493.894 812.314 500.68 812.314 507.671C815.158 529.37 825.584 549.373 841.757 564.155C857.93 578.938 878.813 587.552 900.726 588.481H904.642C925.895 588.969 946.673 582.172 963.512 569.226C980.35 556.279 992.232 537.964 997.176 517.335L1000.06 521.448C1000.57 508.903 1000.36 496.34 999.443 483.818Z" fill="#00AFFF"/>
<path d="M94.5107 395.721C107.482 395.721 120.309 398.424 132.173 403.657C144.036 408.889 154.674 416.536 163.404 426.107C172.135 435.678 178.765 446.964 182.871 459.24C186.977 471.516 188.469 484.513 187.25 497.397C187.192 538.391 195.266 578.991 211.006 616.858C226.746 654.725 249.841 689.111 278.96 718.032L566.247 1005.9C578.965 1019.02 587.541 1035.57 590.913 1053.51C594.285 1071.44 592.303 1089.97 585.213 1106.79C578.123 1123.61 566.236 1137.98 551.03 1148.12C535.825 1158.26 517.968 1163.72 499.68 1163.82C487.451 1163.85 475.34 1161.44 464.053 1156.75C452.766 1152.05 442.528 1145.16 433.938 1136.48C432.866 1135.41 431.9 1134.24 431.053 1132.98L148.094 849.836C101.531 803.683 64.6184 748.761 39.5 688.26C16.6839 633.304 4.01231 574.738 2.04102 515.384C0.921673 509.625 0.334005 503.675 0.333984 497.589C0.333984 492.416 0.757739 487.341 1.57227 482.398C2.10467 474.536 3.63631 466.753 6.14941 459.24C10.2557 446.964 16.8869 435.678 25.6172 426.107C34.3474 416.536 44.9852 408.889 56.8486 403.657C68.7121 398.424 81.5399 395.721 94.5107 395.721Z" fill="#8AFAD6"/>
<path d="M999.649 507.246V501.077C996.552 479.48 985.923 459.663 969.63 445.112C953.337 430.561 932.424 422.207 910.569 421.519C888.713 420.831 867.314 427.854 850.135 441.352C832.956 454.851 821.096 473.96 816.642 495.32H814.375V510.947C810.856 589.029 778.048 662.938 722.46 718.01L721.017 719.45L434.554 1005.88C425.527 1014.43 418.307 1024.68 413.318 1036.06C408.33 1047.43 405.675 1059.68 405.51 1072.09C405.345 1084.5 407.674 1096.82 412.358 1108.32C417.043 1119.82 423.989 1130.27 432.786 1139.04C441.582 1147.82 452.052 1154.75 463.577 1159.42C475.102 1164.1 487.449 1166.42 499.888 1166.26C512.328 1166.09 524.608 1163.44 536.005 1158.47C547.402 1153.49 557.684 1146.28 566.245 1137.28L854.768 849.404C855.555 848.826 856.25 848.133 856.829 847.348C943.88 759.263 994.878 641.954 999.855 518.35C999.855 516.088 999.855 514.031 999.855 511.975L999.649 507.246Z" fill="#065CFF"/>
<path d="M905.889 588.471C957.45 588.471 999.247 546.767 999.247 495.323C999.247 443.879 957.45 402.176 905.889 402.176C854.329 402.176 812.531 443.879 812.531 495.323C812.531 546.767 854.329 588.471 905.889 588.471Z" fill="#00AFFF"/>
<path d="M565.634 1005.9L499.686 940.101L433.738 1005.9C420.778 1018.94 411.97 1035.51 408.419 1053.52C404.868 1071.54 406.733 1090.2 413.78 1107.16C420.826 1124.13 432.741 1138.63 448.025 1148.86C463.31 1159.08 481.283 1164.58 499.686 1164.64C511.948 1164.68 524.095 1162.28 535.418 1157.59C546.741 1152.89 557.013 1145.99 565.634 1137.29C583.039 1119.84 592.81 1096.22 592.81 1071.6C592.81 1046.98 583.039 1023.36 565.634 1005.9Z" fill="#065CFF"/>
</svg>
